<svg id="open-book" xmlns="http://www.w3.org/2000/svg" width="37.866" height="28.929" viewBox="0 0 37.866 28.929">
  <g id="Group_49" data-name="Group 49" transform="translate(0 0)">
    <g id="Group_48" data-name="Group 48">
      <path id="Path_25" data-name="Path 25" d="M36.184,35.049h0a1.335,1.335,0,0,0-.949.393,1.349,1.349,0,0,0-.4.962V56.722a1.36,1.36,0,0,0,1.357,1.355c3.154.008,8.438.665,12.083,4.48V41.293a1.3,1.3,0,0,0-.186-.686C45.095,35.788,39.345,35.056,36.184,35.049Z" transform="translate(-30.392 -35.049)" fill="#b9b9b9"/>
      <path id="Path_26" data-name="Path 26" d="M170.191,56.721V36.4a1.349,1.349,0,0,0-.4-.962,1.336,1.336,0,0,0-.949-.393h0c-3.161.008-8.911.74-11.9,5.558a1.3,1.3,0,0,0-.186.686V62.556c3.645-3.815,8.93-4.472,12.083-4.48A1.36,1.36,0,0,0,170.191,56.721Z" transform="translate(-136.766 -35.048)" fill="#b9b9b9"/>
      <path id="Path_27" data-name="Path 27" d="M186.13,71.8h-.982V88.789a3.467,3.467,0,0,1-3.455,3.458c-2.675.006-7.086.529-10.21,3.486,5.4-1.323,11.1-.463,14.345.277a1.355,1.355,0,0,0,1.658-1.32V73.156A1.356,1.356,0,0,0,186.13,71.8Z" transform="translate(-149.619 -67.115)" fill="#b9b9b9"/>
      <path id="Path_28" data-name="Path 28" d="M2.337,88.789V71.8H1.355A1.356,1.356,0,0,0,0,73.156V94.689a1.355,1.355,0,0,0,1.658,1.32C4.9,95.27,10.6,94.41,16,95.733c-3.124-2.957-7.535-3.48-10.21-3.486A3.467,3.467,0,0,1,2.337,88.789Z" transform="translate(0 -67.115)" fill="#b9b9b9"/>
    </g>
  </g>
</svg>
