<?xml version="1.0" encoding="utf-8"?>
<!-- Generator: Adobe Illustrator 25.0.1, SVG Export Plug-In . SVG Version: 6.00 Build 0)  -->
<svg version="1.1" id="Layer_1" xmlns="http://www.w3.org/2000/svg" xmlns:xlink="http://www.w3.org/1999/xlink" x="0px" y="0px"
	 viewBox="0 0 37 30" style="enable-background:new 0 0 37 30;" xml:space="preserve">
<style type="text/css">
	.st0{fill:#00A89C;}
</style>
<rect x="24" y="22.4" class="st0" width="6" height="7.1"/>
<rect x="24" y="0.5" class="st0" width="6" height="7.1"/>
<rect x="24" y="15.5" class="st0" width="6" height="5.9"/>
<rect x="24" y="8.6" class="st0" width="6" height="5.9"/>
<rect x="31" y="8.6" class="st0" width="6" height="5.9"/>
<path class="st0" d="M33,0.5h-2v7.1h6V4.5C37,2.3,35.2,0.5,33,0.5z"/>
<path class="st0" d="M31,29.5h2c2.2,0,4-1.8,4-4v-3.1h-6V29.5z"/>
<rect x="31" y="15.5" class="st0" width="6" height="5.9"/>
<g>
	<path class="st0" d="M11.4,10.1c-2.3,0-4.2,1.9-4.2,4.2s1.9,4.2,4.2,4.2s4.2-1.9,4.2-4.2S13.7,10.1,11.4,10.1z"/>
	<path class="st0" d="M4,0.5c-2.2,0-4,1.8-4,4v21c0,2.2,1.8,4,4,4h19v-29H4z M19.3,23c0.6,0.9,0.4,2.2-0.6,2.8
		c-0.3,0.2-0.7,0.3-1.1,0.3c-0.6,0-1.3-0.3-1.7-0.9l-2.1-3.1c-0.8,0.2-1.6,0.4-2.5,0.4c-4.5,0-8.2-3.7-8.2-8.2
		c0-4.5,3.7-8.2,8.2-8.2s8.2,3.7,8.2,8.2c0,2.2-0.9,4.2-2.3,5.7L19.3,23z"/>
</g>
</svg>
