<?xml version="1.0" encoding="utf-8"?>
<!-- Generator: Adobe Illustrator 25.0.1, SVG Export Plug-In . SVG Version: 6.00 Build 0)  -->
<svg version="1.1" id="Layer_1" xmlns="http://www.w3.org/2000/svg" xmlns:xlink="http://www.w3.org/1999/xlink" x="0px" y="0px"
	 viewBox="0 0 37 30" style="enable-background:new 0 0 37 30;" xml:space="preserve">
<style type="text/css">
	.st0{fill:#00A89C;}
	.st1{fill:none;stroke:#FFFFFF;}
	.st2{fill:none;stroke:#FFFFFF;stroke-width:4;stroke-linecap:round;stroke-linejoin:round;stroke-miterlimit:10;}
</style>
<g id="browse" transform="translate(-468 -228.5)">
	<path id="Rectangle_13" class="st0" d="M472,229h29c2.2,0,4,1.8,4,4v21c0,2.2-1.8,4-4,4h-29c-2.2,0-4-1.8-4-4v-21
		C468,230.8,469.8,229,472,229z"/>
	<line id="Line_7" class="st1" x1="491.1" y1="236.6" x2="505" y2="236.6"/>
	<line id="Line_8" class="st1" x1="491.1" y1="243.5" x2="505" y2="243.5"/>
	<line id="Line_9" class="st1" x1="491.1" y1="250.4" x2="505" y2="250.4"/>
	<line id="Line_10" class="st1" x1="498.5" y1="228.8" x2="498.5" y2="258.2"/>
	<line id="Line_10-2" class="st1" x1="491.5" y1="229.1" x2="491.5" y2="257.8"/>
	<g id="search" transform="translate(399.611 218.976)">
		<circle id="Ellipse_4" class="st2" cx="79.8" cy="23.8" r="6.2"/>
		<path id="Path_15" class="st2" d="M86,33.6l-3-4.5"/>
	</g>
</g>
</svg>
