<?xml version="1.0" encoding="utf-8"?>
<!-- Generator: Adobe Illustrator 25.0.1, SVG Export Plug-In . SVG Version: 6.00 Build 0)  -->
<svg version="1.1" id="Layer_1" xmlns="http://www.w3.org/2000/svg" xmlns:xlink="http://www.w3.org/1999/xlink" x="0px" y="0px"
	 viewBox="0 0 35 29" style="enable-background:new 0 0 35 29;" xml:space="preserve">
<style type="text/css">
	.st0{fill:#00A89C;}
</style>
<path id="Subtraction_5" class="st0" d="M29,29H6c-3.3,0-6-2.7-6-6V6c0-3.3,2.7-6,6-6h23c3.3,0,6,2.7,6,6v17C35,26.3,32.3,29,29,29z
	 M25.4,16.8c0.3,0,0.5,0.1,0.7,0.3c0.2,0.3,0.3,0.6,0.2,0.9v0.3c0,0.3-0.1,0.6-0.2,0.8c-0.2,0.2-0.5,0.4-0.8,0.5l-1,0.5
	c-0.6,0.3-1.1,0.6-1.5,1.2c-0.3,0.5-0.4,1.1-0.4,1.7v2h5.9v-1.4h-4V23c0-0.3,0-0.6,0.2-0.9c0.2-0.3,0.5-0.5,0.9-0.6l1-0.5
	c0.5-0.2,1-0.6,1.4-1c0.3-0.4,0.5-0.9,0.4-1.4v-0.6c0-0.7-0.2-1.4-0.7-1.9c-0.6-0.5-1.4-0.7-2.1-0.6c-0.8-0.1-1.5,0.2-2.1,0.7
	c-0.5,0.6-0.8,1.5-0.7,2.3l1.9,0.1c0-0.5,0.1-0.9,0.3-1.4C24.8,16.9,25.1,16.8,25.4,16.8z M8,23.6V25h5.6v-1.4h-1.7v-8H10
	c-0.2,0.5-0.5,1-0.9,1.3c-0.4,0.3-0.9,0.5-1.4,0.5l0.1,1.5H8c0.4,0,0.8-0.1,1.1-0.4c0.3-0.3,0.6-0.7,0.7-1.1H10v6.2L8,23.6z
	 M9.7,8.1C9.1,8,8.6,8.2,8.2,8.6C7.8,9,7.6,9.5,7.6,10.1c0,0.5,0.2,1.1,0.5,1.5c0.4,0.4,0.9,0.6,1.4,0.6c0.4,0,0.9-0.1,1.2-0.3
	c0.3-0.2,0.6-0.5,0.8-0.8h0.3c0.1,0.4,0.3,0.8,0.7,1c0.2,0.1,0.4,0.1,0.7,0.1c0.2,0,0.4,0,0.7-0.1v-1.4c-0.1,0-0.2,0-0.3,0
	c-0.1,0-0.3,0-0.4-0.1C13,10.5,13,10.3,13,9.9V7c0.1-0.6-0.2-1.3-0.7-1.7c-0.6-0.4-1.3-0.6-1.9-0.5c-0.6,0-1.3,0.1-1.8,0.5
	c-0.5,0.4-0.7,1-0.8,1.6l1.5,0.3c0-0.3,0.1-0.6,0.3-0.9c0.2-0.2,0.4-0.3,0.7-0.2c0.2,0,0.5,0.1,0.7,0.2c0.2,0.2,0.2,0.5,0.2,0.7v1
	H9.7z M22.5,2.5v8.8c0.4,0.3,0.8,0.4,1.2,0.6c0.5,0.1,1,0.2,1.5,0.2c0.8,0.1,1.5-0.2,2.2-0.6c0.5-0.5,0.8-1.2,0.7-1.9V7.2
	c0-0.6-0.1-1.2-0.4-1.7C27.5,5,27,4.8,26.5,4.8c-0.4,0-0.8,0.1-1.1,0.3c-0.3,0.2-0.5,0.5-0.6,0.9h-0.3V2.5H22.5z M10,10.9
	c-0.2,0-0.4-0.1-0.5-0.2c-0.1-0.2-0.2-0.4-0.2-0.6c0-0.3,0-0.5,0.2-0.7C9.6,9.2,9.8,9.1,10,9.1h1.2v1.2c-0.1,0.2-0.3,0.3-0.5,0.4
	C10.4,10.8,10.2,10.9,10,10.9L10,10.9z M25.4,10.7c-0.2,0-0.4,0-0.5-0.1c-0.2-0.1-0.3-0.1-0.4-0.2V7c0.1-0.2,0.3-0.4,0.6-0.6
	c0.2-0.1,0.4-0.2,0.6-0.2c0.2,0,0.4,0.1,0.5,0.3c0.2,0.3,0.2,0.6,0.2,0.9v2.2c0,0.3,0,0.6-0.2,0.9C25.9,10.7,25.7,10.8,25.4,10.7z"
	/>
</svg>
