<?xml version="1.0" encoding="utf-8"?>
<!-- Generator: Adobe Illustrator 25.0.1, SVG Export Plug-In . SVG Version: 6.00 Build 0)  -->
<svg version="1.1" id="Layer_1" xmlns="http://www.w3.org/2000/svg" xmlns:xlink="http://www.w3.org/1999/xlink" x="0px" y="0px"
	 viewBox="0 0 29.6 33.5" style="enable-background:new 0 0 29.6 33.5;" xml:space="preserve">
<style type="text/css">
	.st0{fill:#00A89C;stroke:#FFFFFF;}
</style>
<g id="database" transform="translate(-3.6 -8.5)">
	<path id="Path_9" class="st0" d="M19.9,26.9c-0.5,0-1,0-1.5,0c-0.5,0-1,0-1.5,0c-3.4,0-6.8-0.6-10-1.8c-1-0.4-2-0.9-2.9-1.6v6.2
		c1.6,2,7.1,3.8,14.3,3.8s12.7-1.8,14.3-3.8v-6.2c-0.9,0.7-1.8,1.2-2.9,1.6C26.7,26.3,23.3,26.9,19.9,26.9z"/>
	<path id="Path_10" class="st0" d="M4.1,16.9v6.2c1.5,1.8,6.3,3.5,12.8,3.7l0.2,0c0.2,0,0.4,0,0.6,0c0.3,0,0.5,0,0.8,0s0.5,0,0.8,0
		c0.2,0,0.4,0,0.6,0l0.2,0c6.4-0.2,11.3-1.9,12.8-3.7v-6.2c-2.8,2.2-8.7,3.4-14.3,3.4S6.9,19.1,4.1,16.9z"/>
	<path id="Path_11" class="st0" d="M32.7,14.6C32,11.8,27.1,9,18.4,9C9.8,9,4.8,11.8,4.2,14.6c-0.1,0.1-0.1,0.2-0.1,0.3v1.5
		c1.6,2,7.1,3.8,14.3,3.8s12.7-1.8,14.3-3.8V15C32.7,14.8,32.7,14.7,32.7,14.6z"/>
	<path id="Path_12" class="st0" d="M4.1,30.2v5.4c0,0.1,0,0.2,0.1,0.3c0.7,3.2,6.7,5.7,14.3,5.7c7.5,0,13.6-2.4,14.3-5.6
		c0-0.1,0.1-0.2,0.1-0.3v-5.4c-2.4,1.9-7.2,3.4-14.3,3.4S6.5,32.1,4.1,30.2z"/>
</g>
</svg>
