<?xml version="1.0" encoding="utf-8"?>
<!-- Generator: Adobe Illustrator 25.0.1, SVG Export Plug-In . SVG Version: 6.00 Build 0)  -->
<svg version="1.1" id="Layer_1" xmlns="http://www.w3.org/2000/svg" xmlns:xlink="http://www.w3.org/1999/xlink" x="0px" y="0px"
	 viewBox="0 0 29.6 33.5" style="enable-background:new 0 0 29.6 33.5;" xml:space="preserve">
<style type="text/css">
	.st0{fill:#00A89C;}
</style>
<path class="st0" d="M1,7.8c1.6,1.7,6.8,3.5,13.8,3.5S27,9.6,28.6,7.8l-0.1-1.5C28,3.6,23.1,1,14.8,1C6.6,1,1.7,3.6,1.1,6.2v0.1v0.1
	v1.4H1z"/>
<path class="st0" d="M1,14.4c1.4,1.5,5.8,3.2,12.3,3.4h0.8c0.5,0,1,0,1.6,0c0.1,0,0.3,0,0.4,0h0.3c6.5-0.2,10.9-1.9,12.3-3.4V9.3
	c-2.9,1.8-8.2,2.9-13.8,2.9S3.9,11.1,1,9.3V14.4z"/>
<path class="st0" d="M1,21.1c1.6,1.7,6.8,3.5,13.8,3.5s12.2-1.7,13.8-3.5V16c-0.7,0.4-1.4,0.8-2.2,1.1c-3.2,1.2-6.7,1.8-10.1,1.8
	c-1,0-2,0-3,0c-3.5,0-6.9-0.6-10.1-1.8C2.4,16.8,1.7,16.4,1,16V21.1z"/>
<path class="st0" d="M1.1,22.6l0.1,4.6c0.6,3,6.5,5.3,13.8,5.3c7.2,0,13.1-2.3,13.8-5.2v-0.1v-0.1v-4.4c-2.9,1.9-7.9,3-13.8,3
	C9,25.6,4,24.5,1.1,22.6z"/>
</svg>
