<?xml version="1.0" encoding="utf-8"?>
<!-- Generator: Adobe Illustrator 25.0.1, SVG Export Plug-In . SVG Version: 6.00 Build 0)  -->
<svg version="1.1" id="Layer_1" xmlns="http://www.w3.org/2000/svg" xmlns:xlink="http://www.w3.org/1999/xlink" x="0px" y="0px"
	 viewBox="0 0 43.8 43.8" style="enable-background:new 0 0 43.8 43.8;" xml:space="preserve">
<style type="text/css">
	.st0{fill:#B9B9B9;}
</style>
<g id="edit" transform="translate(-446.726 -223.933)">
	<path id="Subtraction_6" class="st0" d="M481.7,229.5l3.3,3.3l-19.9,19.9l-3.3-3.3L481.7,229.5z M479.2,227l0.8,0.8l-19.9,19.9
		l-0.8-0.8c-1.8-1.8-1.8-4.8,0-6.6l13.3-13.3C474.4,225.1,477.4,225.1,479.2,227z M486.7,234.4l0.8,0.8c1.8,1.8,1.8,4.8,0,6.6
		l-13.3,13.3c-1.8,1.8-4.8,1.8-6.6,0l-0.8-0.8L486.7,234.4z"/>
	<path id="Polygon_1" class="st0" d="M451.6,265.8c-1.3,0.3-2.5-0.4-2.9-1.7c-0.1-0.4-0.1-0.8,0-1.2l3.8-14.6c0.3-1.3,1.6-2,2.9-1.7
		c0.4,0.1,0.8,0.3,1.1,0.6l10.8,10.8c0.9,0.9,0.9,2.4,0,3.3c-0.3,0.3-0.7,0.5-1.1,0.6L451.6,265.8z"/>
</g>
</svg>
