<?xml version="1.0" encoding="utf-8"?>
<!-- Generator: Adobe Illustrator 25.0.1, SVG Export Plug-In . SVG Version: 6.00 Build 0)  -->
<svg version="1.1" id="calendar" xmlns="http://www.w3.org/2000/svg" xmlns:xlink="http://www.w3.org/1999/xlink" x="0px" y="0px"
	 viewBox="0 0 35.3 31.9" style="enable-background:new 0 0 35.3 31.9;" xml:space="preserve">
<style type="text/css">
	.st0{fill:#00A89C;}
</style>
<path id="Path_23" class="st0" d="M35.3,9.9V5.9c0-1.7-1.4-3.1-3.1-3.1h-0.4v3.8c0,0.6-0.5,1-1,1c-0.6,0-1-0.5-1-1V1
	c0-0.6-0.5-1-1-1c-0.6,0-1,0.5-1,1v1.7h-6.9v3.8c0,0.6-0.5,1-1,1c-0.6,0-1-0.5-1-1V1c0-0.6-0.5-1-1-1c-0.6,0-1,0.5-1,1v1.7H9.7v3.8
	c0,0.6-0.5,1-1,1c-0.6,0-1-0.5-1-1V1c0-0.6-0.5-1-1-1c-0.6,0-1,0.5-1,1v1.7H3.1C1.4,2.8,0,4.1,0,5.9v4.1L35.3,9.9z"/>
<path id="Path_24" class="st0" d="M0,12v16.8c0,1.7,1.4,3.1,3.1,3.1h29.1c1.7,0,3.1-1.4,3.1-3.1V12H0z M9.9,26.4H7.7
	c-0.6,0-1-0.5-1-1s0.5-1,1-1h2.2c0.6,0,1,0.5,1,1S10.5,26.4,9.9,26.4z M9.9,21.9H7.7c-0.6,0-1-0.5-1-1s0.5-1,1-1h2.2
	c0.6,0,1,0.5,1,1S10.5,21.9,9.9,21.9z M9.9,17.5H7.7c-0.6,0-1-0.5-1-1s0.5-1,1-1h2.2c0.6,0,1,0.5,1,1S10.5,17.5,9.9,17.5z
	 M18.8,26.4h-2.2c-0.6,0-1-0.5-1-1s0.5-1,1-1h2.2c0.6,0,1,0.5,1,1S19.3,26.4,18.8,26.4L18.8,26.4L18.8,26.4z M18.8,21.9h-2.2
	c-0.6,0-1-0.5-1-1s0.5-1,1-1h2.2c0.6,0,1,0.5,1,1S19.3,21.9,18.8,21.9L18.8,21.9L18.8,21.9z M18.8,17.5h-2.2c-0.6,0-1-0.5-1-1
	s0.5-1,1-1h2.2c0.6,0,1,0.5,1,1S19.3,17.5,18.8,17.5L18.8,17.5L18.8,17.5z M27.6,26.4h-2.2c-0.6,0-1-0.5-1-1s0.5-1,1-1h2.2
	c0.6,0,1,0.5,1,1S28.2,26.4,27.6,26.4L27.6,26.4z M27.6,21.9h-2.2c-0.6,0-1-0.5-1-1s0.5-1,1-1h2.2c0.6,0,1,0.5,1,1
	S28.2,21.9,27.6,21.9L27.6,21.9z M27.6,17.5h-2.2c-0.6,0-1-0.5-1-1s0.5-1,1-1h2.2c0.6,0,1,0.5,1,1S28.2,17.5,27.6,17.5L27.6,17.5z"
	/>
</svg>
