<svg xmlns="http://www.w3.org/2000/svg" width="39.194" height="34.784" viewBox="0 0 39.194 34.784">
  <g id="folder" transform="translate(-76.4 -128.5)">
    <path id="Path_30" data-name="Path 30" d="M78.594,161.055a2.2,2.2,0,0,1-2.194-2.194V130.694a2.2,2.2,0,0,1,2.194-2.194H92.13a2.173,2.173,0,0,1,2.194,2.156,3.67,3.67,0,0,0,3.659,3.7h9.8a1.542,1.542,0,0,1,1.536,1.536v1.023H83.348a2.565,2.565,0,0,0-2.559,2.559v19.389a2.2,2.2,0,0,1-2.194,2.194Z" transform="translate(0 0)" fill="#b9b9b9"/>
    <path id="Path_32" data-name="Path 32" d="M128.1,350.347a2.2,2.2,0,0,0,2.194-2.2V328.759a2.565,2.565,0,0,1,2.559-2.559H160.3a2.563,2.563,0,0,1,2.555,2.555v19.037a2.563,2.563,0,0,1-2.555,2.555H128.1" transform="translate(-47.26 -187.063)" fill="#b9b9b9"/>
  </g>
</svg>
