<?xml version="1.0" encoding="utf-8"?>
<!-- Generator: Adobe Illustrator 25.0.1, SVG Export Plug-In . SVG Version: 6.00 Build 0)  -->
<svg version="1.1" id="Layer_1" xmlns="http://www.w3.org/2000/svg" xmlns:xlink="http://www.w3.org/1999/xlink" x="0px" y="0px"
	 viewBox="0 0 41 41" style="enable-background:new 0 0 41 41;" xml:space="preserve">
<style type="text/css">
	.st0{fill:#00A89C;}
</style>
<path id="plugin" class="st0" d="M7.4,31.2l7.7-7.7l-0.6-0.6c-3.1-3.1-3.1-8.2,0-11.3l4.8-4.8c0.8-0.8,2-0.8,2.8,0l1.9,1.9l4.2-4.2
	c0.7-0.7,1.7-0.7,2.4,0c0.7,0.7,0.7,1.7,0,2.4l-4.2,4.2l3.4,3.4l4.2-4.2c0.7-0.7,1.7-0.7,2.4,0s0.7,1.7,0,2.4l-4.2,4.2l1.9,1.9
	c0.8,0.8,0.8,2,0,2.8l-4.8,4.8c-3.1,3.1-8.2,3.1-11.3,0l-0.6-0.6l-7.7,7.7c-0.7,0.7-1.7,0.7-2.4,0C6.8,32.9,6.8,31.9,7.4,31.2
	L7.4,31.2z"/>
</svg>
