<svg id="printing" xmlns="http://www.w3.org/2000/svg" width="31.126" height="28.929" viewBox="0 0 31.126 28.929">
  <g id="Group_51" data-name="Group 51" transform="translate(10.029 23.209)">
    <g id="Group_50" data-name="Group 50">
      <path id="Path_29" data-name="Path 29" d="M175.006,399.834h-8.992a1.038,1.038,0,1,0,0,2.075h8.992a1.038,1.038,0,0,0,0-2.075Z" transform="translate(-164.977 -399.834)" fill="#b9b9b9"/>
    </g>
  </g>
  <g id="Group_53" data-name="Group 53" transform="translate(10.029 19.936)">
    <g id="Group_52" data-name="Group 52">
      <path id="Path_30" data-name="Path 30" d="M175.006,346.006h-8.992a1.038,1.038,0,0,0,0,2.075h8.992a1.038,1.038,0,0,0,0-2.075Z" transform="translate(-164.977 -346.006)" fill="#b9b9b9"/>
    </g>
  </g>
  <g id="Group_55" data-name="Group 55" transform="translate(0 0)">
    <g id="Group_54" data-name="Group 54">
      <path id="Path_31" data-name="Path 31" d="M28.7,25.107H25.4v-6a1.038,1.038,0,0,0-1.038-1.038H6.76A1.038,1.038,0,0,0,5.722,19.1v6h-3.3A2.424,2.424,0,0,0,0,27.528V37.966a2.424,2.424,0,0,0,2.421,2.421h3.3v5.569A1.038,1.038,0,0,0,6.76,46.994H24.366A1.038,1.038,0,0,0,25.4,45.957V40.387h3.3a2.424,2.424,0,0,0,2.421-2.421V27.528A2.424,2.424,0,0,0,28.7,25.107ZM7.8,20.14H23.328v4.967H7.8ZM23.328,44.919H7.8V36.431H23.328C23.328,36.688,23.328,44.724,23.328,44.919ZM24.366,31.2H21.725a1.038,1.038,0,1,1,0-2.075h2.641a1.038,1.038,0,1,1,0,2.075Z" transform="translate(0 -18.065)" fill="#b9b9b9"/>
    </g>
  </g>
</svg>
