<?xml version="1.0" encoding="utf-8"?>
<!-- Generator: Adobe Illustrator 25.0.1, SVG Export Plug-In . SVG Version: 6.00 Build 0)  -->
<svg version="1.1" id="Layer_1" xmlns="http://www.w3.org/2000/svg" xmlns:xlink="http://www.w3.org/1999/xlink" x="0px" y="0px"
	 viewBox="0 0 35 29" style="enable-background:new 0 0 35 29;" xml:space="preserve">
<style type="text/css">
	.st0{fill:#00A89C;}
</style>
<g id="relations" transform="translate(-532 -231)">
	<path id="Subtraction_5" class="st0" d="M561,260h-4c-3.3,0-6-2.7-6-6v-17c0-3.3,2.7-6,6-6h4c3.3,0,6,2.7,6,6v17
		C567,257.3,564.3,260,561,260z M556.1,240.5v9.5h3c0.8,0.1,1.5-0.2,2.1-0.6c0.5-0.5,0.8-1.2,0.7-1.8V247c0-0.4-0.1-0.9-0.4-1.2
		c-0.3-0.3-0.7-0.5-1.1-0.6v-0.3c0.4-0.1,0.7-0.2,0.9-0.5c0.2-0.3,0.3-0.7,0.3-1.1v-0.5c0-0.6-0.2-1.2-0.7-1.7
		c-0.6-0.4-1.2-0.6-1.9-0.6H556.1z M558.9,248.6h-1v-2.9h1c0.3,0,0.6,0.1,0.9,0.3c0.2,0.3,0.3,0.6,0.3,0.9v0.5
		c0,0.3-0.1,0.7-0.3,0.9C559.6,248.6,559.2,248.7,558.9,248.6z M558.9,244.4H558v-2.5h0.9c0.3,0,0.5,0.1,0.7,0.2
		c0.2,0.2,0.2,0.5,0.2,0.8v0.5c0,0.3-0.1,0.6-0.2,0.8C559.4,244.4,559.2,244.5,558.9,244.4L558.9,244.4z"/>
	<path id="Subtraction_6" class="st0" d="M542,260h-4c-3.3,0-6-2.7-6-6v-17c0-3.3,2.7-6,6-6h4c3.3,0,6,2.7,6,6v17
		C548,257.3,545.3,260,542,260z M538.9,247.6h2.2l0.5,2.4h1.8l-2.2-9.5h-2.3l-2.2,9.5h1.7L538.9,247.6L538.9,247.6z M540.8,246.2
		h-1.6l0.9-4.1L540.8,246.2L540.8,246.2z"/>
</g>
</svg>
