<?xml version="1.0" encoding="utf-8"?>
<!-- Generator: Adobe Illustrator 25.0.1, SVG Export Plug-In . SVG Version: 6.00 Build 0)  -->
<svg version="1.1" id="Layer_1" xmlns="http://www.w3.org/2000/svg" xmlns:xlink="http://www.w3.org/1999/xlink" x="0px" y="0px"
	 viewBox="0 0 37.3 32.4" style="enable-background:new 0 0 37.3 32.4;" xml:space="preserve">
<style type="text/css">
	.st0{fill:#00A89C;}
</style>
<path class="st0" d="M17.7,10.1h12.8c3.5,0,6.4,2.9,6.4,6.4v9.2c0,3.5-2.9,6.4-6.4,6.4H17.7c-3.5,0-6.4-2.9-6.4-6.4v-9.2
	C11.3,13,14.2,10.1,17.7,10.1z"/>
<path class="st0" d="M8.9,15.2c0-3.9,3.1-7,7-7h11.3V6.5c0-3.5-2.9-6.4-6.4-6.4H6.5c-1.6,0-3.1,0.5-4.2,1.6C0.9,3,0.1,4.7,0.1,6.5
	v11.2c0,3.5,2.9,6.4,6.4,6.4h2.4V15.2z"/>
</svg>
