<?xml version="1.0" encoding="utf-8"?>
<!-- Generator: Adobe Illustrator 25.0.1, SVG Export Plug-In . SVG Version: 6.00 Build 0)  -->
<svg version="1.1" id="Layer_1" xmlns="http://www.w3.org/2000/svg" xmlns:xlink="http://www.w3.org/1999/xlink" x="0px" y="0px"
	 viewBox="0 0 37.3 32.4" style="enable-background:new 0 0 37.3 32.4;" xml:space="preserve">
<style type="text/css">
	.st0{fill:#00A89C;stroke:#FFFFFF;}
	.st1{fill:#00A89C;}
	.st2{fill:none;stroke:#FFFFFF;stroke-width:2;}
</style>
<g id="views" transform="translate(-68.5 -485.5)">
	<path id="Path_14" class="st0" d="M79.4,509.9h-4c-3.5,0-6.4-2.9-6.4-6.4l0,0v-11.2c0-1.8,0.8-3.5,2.1-4.8c1.2-1.1,2.7-1.6,4.2-1.6
		h14.4c3.5,0,6.4,2.9,6.4,6.4v2.9"/>
	<g id="Rectangle_24" transform="translate(77.832 493.92)">
		<path class="st1" d="M7,0h14c3.9,0,7,3.1,7,7v10c0,3.9-3.1,7-7,7H7c-3.9,0-7-3.1-7-7V7C0,3.1,3.1,0,7,0z"/>
		<path class="st2" d="M7,1h14c3.3,0,6,2.7,6,6v10c0,3.3-2.7,6-6,6H7c-3.3,0-6-2.7-6-6V7C1,3.7,3.7,1,7,1z"/>
	</g>
</g>
</svg>
