<?xml version="1.0" encoding="utf-8"?>
<!-- Generator: Adobe Illustrator 25.0.1, SVG Export Plug-In . SVG Version: 6.00 Build 0)  -->
<svg version="1.1" id="Layer_1" xmlns="http://www.w3.org/2000/svg" xmlns:xlink="http://www.w3.org/1999/xlink" x="0px" y="0px"
	 viewBox="0 0 29.6 31.7" style="enable-background:new 0 0 29.6 31.7;" xml:space="preserve">
<style type="text/css">
	.st0{fill:#00A89C;}
</style>
<path id="settings" class="st0" d="M28.2,19l-1.6-0.9c-1.3-0.8-1.7-2.5-0.9-3.7c0.2-0.4,0.5-0.7,0.9-0.9l1.6-0.9
	c1.2-0.7,1.7-2.2,1-3.4c0-0.1-0.1-0.1-0.1-0.2l-1.3-2.2c-0.7-1.2-2.2-1.7-3.4-1c-0.1,0-0.1,0.1-0.2,0.1l-1.6,0.9
	c-1.3,0.7-2.9,0.3-3.6-1c-0.2-0.4-0.4-0.8-0.4-1.3V2.6c0-1.5-1.2-2.6-2.6-2.6h-2.6c-1.5,0-2.6,1.2-2.6,2.6v1.7C10.8,5.8,9.6,7,8.2,7
	C7.7,7,7.3,6.8,6.9,6.6L5.3,5.8C4.1,5.1,2.5,5.4,1.8,6.6c0,0,0,0.1,0,0.1L0.4,9c-0.7,1.3-0.3,2.9,0.9,3.7l1.6,0.9
	c1.2,0.7,1.7,2.3,0.9,3.6c-0.2,0.4-0.5,0.7-0.9,0.9L1.3,19c-1.2,0.7-1.7,2.2-1,3.4c0,0.1,0.1,0.1,0.1,0.2l1.3,2.2
	c0.7,1.2,2.2,1.7,3.4,1c0.1,0,0.1-0.1,0.2-0.1l1.6-0.8c1.3-0.7,2.9-0.3,3.6,1c0.2,0.4,0.4,0.8,0.4,1.3V29c0,1.5,1.2,2.6,2.6,2.6h2.6
	c1.5,0,2.6-1.2,2.6-2.6v-1.7c0-1.5,1.2-2.6,2.7-2.6c0.5,0,0.9,0.1,1.3,0.4l1.6,0.9c1.2,0.7,2.8,0.4,3.5-0.8c0,0,0-0.1,0-0.1l1.3-2.2
	C29.8,21.5,29.5,19.9,28.2,19z M14.8,21.1c-2.9,0-5.3-2.4-5.3-5.3s2.4-5.3,5.3-5.3s5.3,2.4,5.3,5.3l0,0
	C20.1,18.7,17.7,21.1,14.8,21.1z"/>
</svg>
