<?xml version="1.0" encoding="utf-8"?>
<!-- Generator: Adobe Illustrator 25.0.1, SVG Export Plug-In . SVG Version: 6.00 Build 0)  -->
<svg version="1.1" id="Layer_1" xmlns="http://www.w3.org/2000/svg" xmlns:xlink="http://www.w3.org/1999/xlink" x="0px" y="0px"
	 viewBox="0 0 35 29" style="enable-background:new 0 0 35 29;" xml:space="preserve">
<style type="text/css">
	.st0{fill:#00A89C;}
</style>
<path id="Subtraction_4" class="st0" d="M29,29H6c-3.3,0-6-2.7-6-6V6c0-3.3,2.7-6,6-6h23c3.3,0,6,2.7,6,6v17C35,26.3,32.3,29,29,29z
	 M21.1,9.3c-0.8,0-1.5,0.2-2.1,0.8c-0.5,0.6-0.8,1.4-0.7,2.2v3c0,0.7,0.1,1.3,0.5,1.9c0.3,0.5,0.9,0.8,1.4,1
	c-0.1,0.8,0.2,1.6,0.8,2.2c0.4,0.3,0.9,0.4,1.5,0.4c0.3,0,0.7,0,1-0.1l-0.2-1.4c-0.2,0.1-0.5,0.1-0.7,0.1s-0.4,0-0.6-0.1
	c-0.3-0.1-0.4-0.4-0.5-0.9c0.7-0.1,1.3-0.4,1.7-0.9c0.4-0.6,0.6-1.3,0.6-2v-3c0-0.8-0.2-1.6-0.7-2.2C22.7,9.5,21.9,9.2,21.1,9.3z
	 M11.1,16.2l-0.4,1.3c0.4,0.3,0.8,0.5,1.3,0.7s1,0.2,1.5,0.2c0.8,0,1.6-0.2,2.2-0.7c0.5-0.5,0.8-1.2,0.8-2c0-0.6-0.2-1.1-0.5-1.6
	c-0.5-0.5-1.1-0.9-1.7-1.1c-0.4-0.1-0.9-0.4-1.2-0.6c-0.2-0.2-0.3-0.5-0.3-0.8s0.1-0.6,0.3-0.8s0.5-0.3,0.8-0.3c0.4,0,0.7,0.1,1,0.2
	c0.4,0.1,0.7,0.3,1,0.6l0.3-1.3c-0.3-0.3-0.7-0.5-1.1-0.6c-0.4-0.2-0.9-0.2-1.4-0.2c-0.7,0-1.5,0.2-2,0.7S11,11.1,11,11.8
	c0,0.6,0.2,1.1,0.5,1.6c0.5,0.5,1.1,0.9,1.8,1.1c0.4,0.1,0.8,0.3,1.2,0.6c0.2,0.2,0.4,0.5,0.3,0.8c0,0.3-0.1,0.6-0.3,0.8
	c-0.2,0.2-0.6,0.3-0.9,0.3c-0.4,0-0.9-0.1-1.3-0.2C11.8,16.7,11.4,16.4,11.1,16.2z M26.4,9.4v9h5.1V17h-3.3V9.4H26.4z M3.5,10.6V12
	l4,2.5l-4,2.5v1.4l4.8-3v-1.7L3.5,10.6z M21.1,16.9c-0.3,0-0.6-0.1-0.8-0.4c-0.2-0.4-0.3-0.9-0.2-1.4v-2.8c0-0.5,0-0.9,0.2-1.4
	c0.3-0.4,0.9-0.5,1.4-0.2c0.1,0.1,0.1,0.1,0.2,0.2c0.2,0.4,0.3,0.9,0.2,1.4v2.8c0,0.5,0,0.9-0.2,1.4C21.8,16.8,21.5,17,21.1,16.9z"
	/>
</svg>
