<?xml version="1.0" encoding="utf-8"?>
<!-- Generator: Adobe Illustrator 25.0.1, SVG Export Plug-In . SVG Version: 6.00 Build 0)  -->
<svg version="1.1" id="Layer_1" xmlns="http://www.w3.org/2000/svg" xmlns:xlink="http://www.w3.org/1999/xlink" x="0px" y="0px"
	 viewBox="0 0 31.2 31.2" style="enable-background:new 0 0 31.2 31.2;" xml:space="preserve">
<style type="text/css">
	.st0{fill:#00A89C;}
</style>
<g id="charging-circle" transform="translate(-0.001 0.001)">
	<g id="Group_47" transform="translate(0.001 -0.001)">
		<g id="Group_46" transform="translate(0 0)">
			<path id="Path_17" class="st0" d="M29,17.4c-0.9,0-1.7,0.6-2,1.5c-2,6.1-8.5,9.5-14.7,7.5s-9.5-8.5-7.5-14.7
				C6,8.1,8.8,5.3,12.3,4.2c0.9-0.3,1.5-1.1,1.5-2.1c0-1.2-0.9-2.1-2.1-2.1c-0.2,0-0.4,0-0.6,0.1c-8.4,2.7-13,11.7-10.3,20
				s11.7,13,20,10.3c4.9-1.6,8.7-5.4,10.3-10.2c0.4-1.1-0.2-2.3-1.4-2.7C29.5,17.4,29.2,17.4,29,17.4z"/>
			<path id="Path_18" class="st0" d="M19.5,4.2c3.6,1.2,6.3,3.9,7.5,7.5c0.3,0.9,1.1,1.5,2,1.5h0c1.2,0,2.1-0.9,2.1-2.1
				c0-0.2,0-0.4-0.1-0.6c-1.6-4.9-5.4-8.7-10.3-10.3c-1.1-0.4-2.3,0.2-2.7,1.4c-0.1,0.2-0.1,0.4-0.1,0.7v0
				C18.1,3.1,18.7,3.9,19.5,4.2z"/>
		</g>
	</g>
</g>
</svg>
