<?xml version="1.0" encoding="utf-8"?>
<!-- Generator: Adobe Illustrator 25.0.1, SVG Export Plug-In . SVG Version: 6.00 Build 0)  -->
<svg version="1.1" id="Layer_1" xmlns="http://www.w3.org/2000/svg" xmlns:xlink="http://www.w3.org/1999/xlink" x="0px" y="0px"
	 viewBox="0 0 37 29" style="enable-background:new 0 0 37 29;" xml:space="preserve">
<style type="text/css">
	.st0{fill:#00A89C;}
</style>
<g>
	<rect x="19.7" y="15.7" class="st0" width="17.3" height="4.7"/>
	<rect x="19.7" y="8.7" class="st0" width="17.3" height="4.7"/>
	<path class="st0" d="M17.3,6.3V0h2.3v6.3H37V4c0-2.2-1.8-4-4-4H4C1.8,0,0,1.8,0,4v2.3H17.3z"/>
	<path class="st0" d="M19.7,22.7V29h-2.3v-6.3H0V25c0,2.2,1.8,4,4,4h29c2.2,0,4-1.8,4-4v-2.3H19.7z"/>
	<rect y="8.7" class="st0" width="17.3" height="4.7"/>
	<rect y="15.7" class="st0" width="17.3" height="4.7"/>
</g>
</svg>
