<?xml version="1.0" encoding="utf-8"?>
<!-- Generator: Adobe Illustrator 25.0.1, SVG Export Plug-In . SVG Version: 6.00 Build 0)  -->
<svg version="1.1" id="Layer_1" xmlns="http://www.w3.org/2000/svg" xmlns:xlink="http://www.w3.org/1999/xlink" x="0px" y="0px"
	 viewBox="0 0 30.1 33.7" style="enable-background:new 0 0 30.1 33.7;" xml:space="preserve">
<style type="text/css">
	.st0{fill:#00A89C;}
</style>
<g id="timer" transform="translate(-23.767)">
	<g id="Group_49" transform="translate(34.648)">
		<g id="Group_48">
			<path id="Path_23" class="st0" d="M6,0H1.2C0.5,0,0,0.5,0,1.2s0.5,1.2,1.2,1.2H6c0.6,0,1.2-0.5,1.2-1.2S6.6,0,6,0z"/>
		</g>
	</g>
	<g id="Group_51" transform="translate(48.389 4.135)">
		<g id="Group_50" transform="translate(0)">
			<path id="Path_24" class="st0" d="M5.1,3.5L2,0.3c-0.5-0.5-1.2-0.5-1.6,0c-0.5,0.5-0.5,1.2,0,1.6l3.1,3.1
				c0.2,0.2,0.5,0.3,0.8,0.3c0.3,0,0.6-0.1,0.8-0.3C5.5,4.7,5.6,4,5.1,3.5C5.2,3.5,5.1,3.5,5.1,3.5z"/>
		</g>
	</g>
	<g id="Group_53" transform="translate(23.767 4.823)">
		<g id="Group_52" transform="translate(0)">
			<path id="Path_25" class="st0" d="M14.4,0C6.5,0,0,6.5,0,14.4c0,8,6.5,14.4,14.4,14.4s14.4-6.5,14.4-14.4c0,0,0,0,0,0
				C28.9,6.5,22.4,0,14.4,0C14.4,0,14.4,0,14.4,0z M20.4,16h-6c-0.6,0-1.2-0.5-1.2-1.2V7.3c0-0.6,0.5-1.2,1.2-1.2
				c0.6,0,1.2,0.5,1.2,1.2v6.4h4.8c0.6,0,1.1,0.5,1.1,1.1S21,16,20.4,16L20.4,16z"/>
		</g>
	</g>
</g>
</svg>
