<?xml version="1.0" encoding="utf-8"?>
<!-- Generator: Adobe Illustrator 25.0.1, SVG Export Plug-In . SVG Version: 6.00 Build 0)  -->
<svg version="1.1" id="Layer_1" xmlns="http://www.w3.org/2000/svg" xmlns:xlink="http://www.w3.org/1999/xlink" x="0px" y="0px"
	 viewBox="0 0 26 33.8" style="enable-background:new 0 0 26 33.8;" xml:space="preserve">
<style type="text/css">
	.st0{fill:#00A89C;}
</style>
<g id="press-button" transform="translate(-2.94)">
	<path id="Path_23" class="st0" d="M7.4,11.2C7.2,10.4,7,9.6,6.8,8.9C5,7.8,4.4,5.6,5.5,3.8s3.3-2.4,5.1-1.4
		c1.4,0.8,2.1,2.5,1.8,4.1c0.4,0.8,0.7,1.7,0.9,2.6c1.9-2.5,1.4-6.1-1.1-7.9S6-0.2,4.2,2.3s-1.4,6.1,1.1,7.9
		C5.9,10.7,6.7,11,7.4,11.2z"/>
	<path id="Path_24" class="st0" d="M3.5,24.6c1.4-1.5,3-0.9,5.1-0.6c1.8,0.3,3.6-0.2,3.5-1.2c-0.2-1.5-0.6-2.9-1-4.3
		c-0.5-1.6-1.4-4.6-2.2-7.4c-1.1-3.7-1.4-5.5,0-5.9c1.6-0.5,2.5,1.8,3.3,4.9c0.9,3.6,1.4,5.1,1.7,5c0.5-0.1-0.2-1.7,1.1-2
		c1.6-0.5,1.9,0.8,2.3,0.7s0.3-1.4,1.6-1.8s1.9,1.2,2.4,1s0.5-0.7,1.3-0.9s3.8,1.1,5.5,6.9c2.1,7.3-0.3,8.6,0.5,11.1L19,33.8
		c-0.8-1.9-3.2-2-5.3-3.2c-2.1-1.2-3.6-3.5-9.1-3.4C2.6,27.2,2.7,25.6,3.5,24.6z"/>
</g>
</svg>
