<?xml version="1.0" encoding="utf-8"?>
<!-- Generator: Adobe Illustrator 25.0.1, SVG Export Plug-In . SVG Version: 6.00 Build 0)  -->
<svg version="1.1" id="Layer_1" xmlns="http://www.w3.org/2000/svg" xmlns:xlink="http://www.w3.org/1999/xlink" x="0px" y="0px"
	 viewBox="0 0 35 29" style="enable-background:new 0 0 35 29;" xml:space="preserve">
<style type="text/css">
	.st0{fill:#00A89C;}
</style>
<path id="var" class="st0" d="M29,29H6c-3.3,0-6-2.7-6-6V6c0-3.3,2.7-6,6-6h23c3.3,0,6,2.7,6,6v17C35,26.3,32.3,29,29,29z M23.1,8.4
	L23,9.7c0.8,0.2,1.5,0.8,1.9,1.6c0.4,1,0.6,2.1,0.6,3.2c0,1.1-0.1,2.2-0.6,3.2c-0.4,0.8-1.1,1.3-1.9,1.6l0.2,1.3
	c1.3-0.2,2.4-0.9,3.2-2c0.7-1.2,1.1-2.6,1-4.1c0.1-1.4-0.3-2.8-1-4C25.6,9.3,24.4,8.6,23.1,8.4z M12.9,8.4c-1.3,0.2-2.4,0.9-3.2,2
	c-0.7,1.2-1.1,2.6-1,4c-0.1,1.4,0.3,2.8,1,4.1c0.7,1.1,1.9,1.8,3.2,2l0.2-1.3c-0.8-0.2-1.5-0.8-1.9-1.6c-0.4-1-0.6-2.1-0.6-3.2
	c0-1.1,0.1-2.2,0.6-3.2c0.4-0.8,1.1-1.4,1.9-1.6L12.9,8.4z M17.9,15.9L17.9,15.9l1.2,2.1H21l-2.1-3.7l2-3.4H19l-1,1.9L17,10.9h-1.9
	l2,3.5L15,18h1.9L17.9,15.9L17.9,15.9z"/>
</svg>
