<svg xmlns="http://www.w3.org/2000/svg" width="35" height="29" viewBox="0 0 35 29">
  <path id="Subtraction_5" data-name="Subtraction 5" d="M29,29H6a6.007,6.007,0,0,1-6-6V6A6.007,6.007,0,0,1,6,0H29a6.007,6.007,0,0,1,6,6V23A6.007,6.007,0,0,1,29,29ZM25.375,16.8a.882.882,0,0,1,.733.284,1.477,1.477,0,0,1,.225.91v.331a1.2,1.2,0,0,1-.219.809,2.964,2.964,0,0,1-.822.55l-.981.472a3.735,3.735,0,0,0-1.471,1.152,3.138,3.138,0,0,0-.4,1.708V25h5.863V23.558H24.323v-.568a1.5,1.5,0,0,1,.2-.868,2.691,2.691,0,0,1,.868-.62l.993-.473a4.413,4.413,0,0,0,1.4-1.022,2.229,2.229,0,0,0,.431-1.448v-.615a2.417,2.417,0,0,0-.7-1.878,3.121,3.121,0,0,0-2.145-.639,2.774,2.774,0,0,0-2.08.692,3.516,3.516,0,0,0-.745,2.274l1.879.119a3.622,3.622,0,0,1,.255-1.365A.737.737,0,0,1,25.375,16.8ZM8.014,23.558V25h5.578V23.558H11.878V15.546H10.034a2.646,2.646,0,0,1-.868,1.282,2.244,2.244,0,0,1-1.364.527l.106,1.465h.073a1.658,1.658,0,0,0,1.061-.374,1.979,1.979,0,0,0,.674-1.1H10v6.216ZM9.7,8.052a2.185,2.185,0,0,0-1.531.527A1.935,1.935,0,0,0,7.6,10.074a2.058,2.058,0,0,0,.538,1.489,1.853,1.853,0,0,0,1.389.556,2.3,2.3,0,0,0,1.217-.331,2.506,2.506,0,0,0,.84-.8h.284a1.334,1.334,0,0,0,.685.951,1.54,1.54,0,0,0,.667.136,2.941,2.941,0,0,0,.657-.083V10.641a1.756,1.756,0,0,1-.317.033.763.763,0,0,1-.368-.079c-.159-.088-.237-.3-.237-.651V7a2,2,0,0,0-.68-1.684,3.131,3.131,0,0,0-1.944-.526,2.7,2.7,0,0,0-1.767.5,2.791,2.791,0,0,0-.822,1.649l1.525.3A1.875,1.875,0,0,1,9.6,6.363a.866.866,0,0,1,.673-.237.919.919,0,0,1,.674.225.993.993,0,0,1,.224.721v.98ZM22.55,2.545v8.77a4.29,4.29,0,0,0,1.247.561,5.387,5.387,0,0,0,1.507.219,3.187,3.187,0,0,0,2.151-.65A2.368,2.368,0,0,0,28.2,9.565V7.154a2.972,2.972,0,0,0-.449-1.714,1.487,1.487,0,0,0-1.3-.65,1.861,1.861,0,0,0-1.082.308,1.735,1.735,0,0,0-.643.9h-.3V2.545Zm-12.54,8.344a.648.648,0,0,1-.549-.225,1.059,1.059,0,0,1-.172-.65,1.143,1.143,0,0,1,.166-.721A.645.645,0,0,1,9.964,9.1h1.205v1.218a1.609,1.609,0,0,1-.537.431A1.449,1.449,0,0,1,10.011,10.889ZM25.4,10.735a1.668,1.668,0,0,1-.526-.076,2.192,2.192,0,0,1-.444-.207V7a2,2,0,0,1,.562-.568,1.138,1.138,0,0,1,.6-.176.629.629,0,0,1,.538.272,1.535,1.535,0,0,1,.194.874V9.554a1.48,1.48,0,0,1-.218.91A.853.853,0,0,1,25.4,10.735Z" fill="#b9b9b9"/>
</svg>
