<svg xmlns="http://www.w3.org/2000/svg" width="29.647" height="33.539" viewBox="0 0 29.647 33.539">
  <g id="database" transform="translate(-3.6 -8.5)">
    <path id="Path_9" data-name="Path 9" d="M19.917,31.353q-.748.027-1.493.028c-.5,0-1-.009-1.5-.028a29.557,29.557,0,0,1-9.971-1.8A11.1,11.1,0,0,1,4.1,28v6.217c1.631,1.965,7.1,3.777,14.324,3.777s12.693-1.812,14.324-3.777V28a11.124,11.124,0,0,1-2.879,1.565A29.607,29.607,0,0,1,19.917,31.353Z" transform="translate(0 -4.45)" fill="#b9b9b9" stroke="#fff" stroke-width="1"/>
    <path id="Path_10" data-name="Path 10" d="M4.1,14.889v6.217c1.511,1.821,6.321,3.512,12.769,3.749l.2.005c.187.006.373.012.563.015q.393.008.792.008t.792-.007c.189,0,.376-.009.563-.015l.2-.005c6.447-.237,11.257-1.928,12.769-3.749V14.889c-2.789,2.211-8.684,3.38-14.324,3.38S6.889,17.1,4.1,14.889Z" transform="translate(0 1.974)" fill="#b9b9b9" stroke="#fff" stroke-width="1"/>
    <path id="Path_11" data-name="Path 11" d="M32.67,5.649C32.027,2.8,27.084,0,18.424,0,9.785,0,4.847,2.791,4.184,5.628a.715.715,0,0,0-.084.324V7.477c1.625,1.958,7.057,3.766,14.324,3.766s12.7-1.807,14.324-3.766V5.952A.679.679,0,0,0,32.67,5.649Z" transform="translate(0 9)" fill="#b9b9b9" stroke="#fff" stroke-width="1"/>
    <path id="Path_12" data-name="Path 12" d="M4.1,41v5.424a.7.7,0,0,0,.067.3c.677,3.237,6.73,5.654,14.257,5.654,7.509,0,13.553-2.407,14.252-5.632a.738.738,0,0,0,.072-.32V41C30.378,42.927,25.5,44.44,18.424,44.44S6.469,42.925,4.1,41Z" transform="translate(0 -10.837)" fill="#b9b9b9" stroke="#fff" stroke-width="1"/>
  </g>
</svg>
