<svg xmlns="http://www.w3.org/2000/svg" width="39.088" height="29" viewBox="0 0 39.088 29">
  <path id="XMLID_49_" d="M38.57,51.908l-4.386-3.33a1.309,1.309,0,0,0-2.1,1.043v2.038h-1.3V49.6a1.31,1.31,0,0,0-1.309-1.31H26.869V43.427a1.31,1.31,0,0,0-1.309-1.31H21.486v-1.39h1.1a1.309,1.309,0,1,0,0-2.619h-8.46a1.309,1.309,0,1,0,0,2.619h1.1v1.39H10.158a1.31,1.31,0,0,0-1.31,1.31v2.556H6.29a1.31,1.31,0,0,0-1.31,1.309v3H2.619V46.572a1.309,1.309,0,0,0-2.619,0v13.7a1.309,1.309,0,0,0,2.619,0V56.554H4.981v3.071a1.309,1.309,0,0,0,1.31,1.309H9.584l4.62,5.69a1.31,1.31,0,0,0,1.016.484H29.476a1.31,1.31,0,0,0,1.309-1.31v-1.73h1.3V65.8a1.309,1.309,0,0,0,2.162.994l4.386-3.759a1.31,1.31,0,0,0,.457-.994V52.951A1.311,1.311,0,0,0,38.57,51.908Z" transform="translate(0 -38.108)" fill="#b9b9b9"/>
</svg>
