<svg id="calendar" xmlns="http://www.w3.org/2000/svg" width="35.32" height="31.871" viewBox="0 0 35.32 31.871">
  <path id="Path_23" data-name="Path 23" d="M35.32,34.934v-4.07a3.108,3.108,0,0,0-3.1-3.1H31.8v3.794a1.035,1.035,0,0,1-2.07,0V26.035a1.035,1.035,0,0,0-2.07,0v1.725h-6.9v3.794a1.035,1.035,0,0,1-2.07,0V26.035a1.035,1.035,0,0,0-2.07,0v1.725h-6.9v3.794a1.035,1.035,0,0,1-2.07,0V26.035a1.035,1.035,0,0,0-2.07,0v1.725H3.1a3.108,3.108,0,0,0-3.1,3.1v4.07Z" transform="translate(0 -25)" fill="#b9b9b9"/>
  <path id="Path_24" data-name="Path 24" d="M0,199v16.763a3.108,3.108,0,0,0,3.1,3.1H32.216a3.108,3.108,0,0,0,3.1-3.1V199Zm9.934,14.349H7.726a1.035,1.035,0,0,1,0-2.07H9.934a1.035,1.035,0,0,1,0,2.07Zm0-4.415H7.726a1.035,1.035,0,0,1,0-2.07H9.934a1.035,1.035,0,0,1,0,2.07Zm0-4.415H7.726a1.035,1.035,0,0,1,0-2.07H9.934a1.035,1.035,0,0,1,0,2.07Zm8.83,8.83H16.556a1.035,1.035,0,0,1,0-2.07h2.207a1.035,1.035,0,0,1,0,2.07Zm0-4.415H16.556a1.035,1.035,0,0,1,0-2.07h2.207a1.035,1.035,0,0,1,0,2.07Zm0-4.415H16.556a1.035,1.035,0,0,1,0-2.07h2.207a1.035,1.035,0,0,1,0,2.07Zm8.83,8.83H25.386a1.035,1.035,0,0,1,0-2.07h2.207a1.035,1.035,0,0,1,0,2.07Zm0-4.415H25.386a1.035,1.035,0,0,1,0-2.07h2.207a1.035,1.035,0,0,1,0,2.07Zm0-4.415H25.386a1.035,1.035,0,0,1,0-2.07h2.207a1.035,1.035,0,0,1,0,2.07Z" transform="translate(0 -186.997)" fill="#b9b9b9"/>
</svg>
