<?xml version="1.0" encoding="utf-8"?>
<!-- Generator: Adobe Illustrator 25.0.1, SVG Export Plug-In . SVG Version: 6.00 Build 0)  -->
<svg version="1.1" id="Layer_1" xmlns="http://www.w3.org/2000/svg" xmlns:xlink="http://www.w3.org/1999/xlink" x="0px" y="0px"
	 viewBox="0 0 37 29" style="enable-background:new 0 0 37 29;" xml:space="preserve">
<style type="text/css">
	.st0{fill:#B9B9B9;}
</style>
<rect x="19.7" y="15.7" class="st0" width="17.3" height="4.7"/>
<rect x="19.7" y="8.7" class="st0" width="17.3" height="4.7"/>
<path class="st0" d="M33,0H19.6v6.3H37V4C37,1.8,35.2,0,33,0z"/>
<path class="st0" d="M19.7,29H33c2.2,0,4-1.8,4-4v-2.3H19.7V29z"/>
<g>
	<path class="st0" d="M17.3,22.7v-7v-7V0H4C1.8,0,0,1.8,0,4v4.7v7v7V25c0,2.2,1.8,4,4,4h13.4v-6.3H17.3z M13.6,11.8
		c-0.3,0.7-0.7,1.3-1.2,1.8c-0.7,0.7-1.5,1.1-2.3,1.4l0,4.9l1.8,0c0.2,0,0.4,0.1,0.5,0.4c0,0,0,0.1,0,0.1l0,2c0,0.2-0.1,0.4-0.4,0.5
		c0,0-0.1,0-0.1,0L10,23l0,1.3c0,0.2-0.1,0.4-0.4,0.5c0,0-0.1,0-0.1,0l-2.1,0c0,0-0.1,0-0.1,0C7.1,24.7,7,24.5,7,24.2L7,15
		c-0.9-0.3-1.7-0.7-2.3-1.4c-0.5-0.5-0.9-1.1-1.2-1.8c-0.3-0.7-0.4-1.4-0.4-2.1c0-0.7,0.1-1.4,0.4-2.1c0.3-0.7,0.7-1.3,1.2-1.8
		s1.1-0.9,1.8-1.2c0.7-0.3,1.4-0.4,2.1-0.4c0.7,0,1.4,0.1,2.1,0.4c0.7,0.3,1.3,0.7,1.8,1.2s0.9,1.1,1.2,1.8c0.3,0.7,0.4,1.4,0.4,2.1
		S13.9,11.1,13.6,11.8z"/>
	<path class="st0" d="M8.6,7C7.9,7,7.2,7.3,6.7,7.8C6.1,8.3,5.9,9,5.9,9.7c0,0.7,0.3,1.4,0.8,1.9c0.5,0.5,1.2,0.8,1.9,0.8
		c0.7,0,1.4-0.3,1.9-0.8c0.5-0.5,0.8-1.2,0.8-1.9c0-0.7-0.3-1.4-0.8-1.9C10,7.3,9.3,7,8.6,7z"/>
</g>
</svg>
