<svg xmlns="http://www.w3.org/2000/svg" width="35" height="29" viewBox="0 0 35 29">
  <g id="relations" transform="translate(-532 -231)">
    <path id="Subtraction_5" data-name="Subtraction 5" d="M10,29H6a6.007,6.007,0,0,1-6-6V6A6.007,6.007,0,0,1,6,0h4a6.007,6.007,0,0,1,6,6V23A6.007,6.007,0,0,1,10,29ZM5.093,9.545V19H8.106a3.152,3.152,0,0,0,2.116-.62,2.323,2.323,0,0,0,.708-1.838v-.58a1.946,1.946,0,0,0-.378-1.229,1.547,1.547,0,0,0-1.087-.568v-.342a1.522,1.522,0,0,0,.946-.515,1.744,1.744,0,0,0,.3-1.081v-.461a2.085,2.085,0,0,0-.65-1.661A2.89,2.89,0,0,0,8.13,9.545Zm2.836,8.084H6.971v-2.9h.958a1.149,1.149,0,0,1,.863.277,1.307,1.307,0,0,1,.26.9v.508a1.351,1.351,0,0,1-.26.923A1.132,1.132,0,0,1,7.929,17.629Zm-.035-4.2H6.971V10.916h.922a.964.964,0,0,1,.733.242,1.145,1.145,0,0,1,.224.787v.461a1.14,1.14,0,0,1-.224.786A.962.962,0,0,1,7.894,13.433Z" transform="translate(551 231)" fill="#b9b9b9"/>
    <path id="Subtraction_6" data-name="Subtraction 6" d="M10,29H6a6.007,6.007,0,0,1-6-6V6A6.007,6.007,0,0,1,6,0h4a6.007,6.007,0,0,1,6,6V23A6.007,6.007,0,0,1,10,29ZM6.89,16.589H9.1L9.56,19h1.773L9.147,9.545H6.865L4.679,19h1.7l.508-2.41Zm1.938-1.43H7.185l.862-4.1.78,4.1Z" transform="translate(532 231)" fill="#b9b9b9"/>
  </g>
</svg>
