<svg xmlns="http://www.w3.org/2000/svg" width="29.571" height="31.661" viewBox="0 0 29.571 31.661">
  <path id="settings" d="M29.034,19l-1.583-.923a2.715,2.715,0,0,1,0-4.617l1.583-.923a2.507,2.507,0,0,0,.923-3.562L28.638,6.728A2.507,2.507,0,0,0,25.076,5.8l-1.583.923a2.633,2.633,0,0,1-3.958-2.243V2.638A2.646,2.646,0,0,0,16.9,0H14.258A2.646,2.646,0,0,0,11.62,2.638V4.353A2.633,2.633,0,0,1,7.662,6.6L6.079,5.8a2.558,2.558,0,0,0-3.562.923L1.2,8.971a2.877,2.877,0,0,0,.923,3.694l1.583.923a2.6,2.6,0,0,1,0,4.485L2.122,19A2.507,2.507,0,0,0,1.2,22.559L2.517,24.8a2.507,2.507,0,0,0,3.562.923l1.583-.792a2.633,2.633,0,0,1,3.958,2.243v1.847a2.646,2.646,0,0,0,2.638,2.638H16.9a2.646,2.646,0,0,0,2.638-2.638V27.308a2.633,2.633,0,0,1,3.958-2.243l1.583.923a2.558,2.558,0,0,0,3.562-.923l1.319-2.243A3.01,3.01,0,0,0,29.034,19ZM15.578,21.107a5.277,5.277,0,1,1,5.277-5.277A5.292,5.292,0,0,1,15.578,21.107Z" transform="translate(-0.792)" fill="#b9b9b9"/>
</svg>
