<svg xmlns="http://www.w3.org/2000/svg" width="35" height="29" viewBox="0 0 35 29">
  <path id="Subtraction_4" data-name="Subtraction 4" d="M29,29H6a6.007,6.007,0,0,1-6-6V6A6.007,6.007,0,0,1,6,0H29a6.007,6.007,0,0,1,6,6V23A6.007,6.007,0,0,1,29,29ZM16.476,6.109a1.721,1.721,0,0,0-1.342.52,2.1,2.1,0,0,0-.469,1.451v1.934a2.174,2.174,0,0,0,.328,1.24,1.483,1.483,0,0,0,.938.622,1.6,1.6,0,0,0,.52,1.418,1.677,1.677,0,0,0,.949.236,4.248,4.248,0,0,0,.677-.061l-.124-.924a2.316,2.316,0,0,1-.471.057.9.9,0,0,1-.361-.064c-.186-.082-.29-.287-.309-.61a1.559,1.559,0,0,0,1.087-.593,2.155,2.155,0,0,0,.374-1.32V8.08a2.107,2.107,0,0,0-.465-1.451A1.7,1.7,0,0,0,16.476,6.109ZM9.923,10.6l-.255.873a3.068,3.068,0,0,0,.823.432,2.917,2.917,0,0,0,.959.157,2.066,2.066,0,0,0,1.418-.465,1.632,1.632,0,0,0,.524-1.28,1.542,1.542,0,0,0-.331-1.03,2.845,2.845,0,0,0-1.13-.7,3.177,3.177,0,0,1-.8-.4.606.606,0,0,1-.212-.5.667.667,0,0,1,.175-.5.713.713,0,0,1,.509-.167,1.853,1.853,0,0,1,.665.127,3,3,0,0,1,.673.375l.2-.83a2.473,2.473,0,0,0-.731-.41,2.549,2.549,0,0,0-.884-.157,1.753,1.753,0,0,0-1.3.465,1.664,1.664,0,0,0-.458,1.215,1.536,1.536,0,0,0,.33,1.032,2.754,2.754,0,0,0,1.139.684,3.228,3.228,0,0,1,.782.389.648.648,0,0,1,.214.535.745.745,0,0,1-.185.531.754.754,0,0,1-.571.2,2.125,2.125,0,0,1-.83-.157A3.567,3.567,0,0,1,9.923,10.6Zm9.993-4.422V12H23.2v-.887H21.073V6.182ZM5.022,6.974v.887l2.6,1.593-2.6,1.593v.887l3.149-1.921V8.895Zm11.447,4.117a.532.532,0,0,1-.5-.255,1.941,1.941,0,0,1-.145-.886v-1.8a1.945,1.945,0,0,1,.145-.891.631.631,0,0,1,1.008,0,1.982,1.982,0,0,1,.141.891v1.8a1.979,1.979,0,0,1-.141.886A.53.53,0,0,1,16.469,11.091Z" fill="#b9b9b9"/>
</svg>
