<svg xmlns="http://www.w3.org/2000/svg" width="26.023" height="33.759" viewBox="0 0 26.023 33.759">
  <g id="press-button" transform="translate(-2.94)">
    <path id="Path_23" data-name="Path 23" d="M7.416,11.2c-.232-.784-.454-1.57-.621-2.322a3.733,3.733,0,1,1,5.511-2.38,18.232,18.232,0,0,1,.9,2.568A5.663,5.663,0,1,0,7.416,11.2Z" transform="translate(0.02)" fill="#b9b9b9"/>
    <path id="Path_24" data-name="Path 24" d="M3.516,23.39c1.4-1.512,2.968-.92,5.069-.6,1.805.278,3.582-.229,3.464-1.2A22.6,22.6,0,0,0,11,17.261c-.478-1.625-1.384-4.553-2.209-7.353-1.105-3.746-1.425-5.485.046-5.919,1.585-.462,2.494,1.791,3.318,4.914.938,3.555,1.431,5.124,1.708,5.042.487-.139-.179-1.66,1.095-2.035,1.592-.463,1.9.781,2.346.657s.295-1.395,1.564-1.766,1.917,1.2,2.443,1.046.509-.721,1.3-.946,3.754,1.093,5.451,6.891c2.13,7.29-.27,8.645.458,11.113l-9.508,3.615c-.77-1.851-3.154-1.988-5.263-3.168-2.125-1.2-3.568-3.526-9.106-3.413C2.557,25.981,2.656,24.32,3.516,23.39Z" transform="translate(0 1.24)" fill="#b9b9b9"/>
  </g>
</svg>
