<svg xmlns="http://www.w3.org/2000/svg" width="35" height="29" viewBox="0 0 35 29">
  <path id="var" d="M29,29H6a6.007,6.007,0,0,1-6-6V6A6.007,6.007,0,0,1,6,0H29a6.007,6.007,0,0,1,6,6V23A6.007,6.007,0,0,1,29,29ZM23.141,8.428l-.189,1.24a2.95,2.95,0,0,1,1.9,1.6,7.558,7.558,0,0,1,.567,3.185,7.344,7.344,0,0,1-.567,3.161,2.965,2.965,0,0,1-1.9,1.566l.189,1.3A4.59,4.59,0,0,0,26.3,18.514a7.44,7.44,0,0,0,1-4.059,7.456,7.456,0,0,0-1-4.048A4.571,4.571,0,0,0,23.141,8.428Zm-10.27,0A4.579,4.579,0,0,0,9.7,10.407a7.456,7.456,0,0,0-1,4.048,7.44,7.44,0,0,0,1,4.059,4.6,4.6,0,0,0,3.173,1.968l.189-1.3a2.973,2.973,0,0,1-1.914-1.56,7.34,7.34,0,0,1-.567-3.167,7.534,7.534,0,0,1,.567-3.209A2.963,2.963,0,0,1,13.06,9.668Zm5.046,7.445v0L19.135,18h1.891l-2.1-3.7,1.95-3.392H19.016l-.957,1.867-1.075-1.867H15.1l1.974,3.475L14.951,18h1.856l1.11-2.126Z" fill="#b9b9b9"/>
</svg>
