<svg xmlns="http://www.w3.org/2000/svg" width="24" height="24" viewBox="0 0 24 24">
  <path id="Subtraction_3" data-name="Subtraction 3" d="M12,24A12,12,0,0,1,3.515,3.515,12,12,0,1,1,20.485,20.485,11.922,11.922,0,0,1,12,24Zm-.794-8.681v2.172h2V15.32ZM12.243,7.7a1.726,1.726,0,0,1,1.253.453,1.462,1.462,0,0,1,.465,1.085,1.434,1.434,0,0,1-.263.834,8.937,8.937,0,0,1-1.043,1.013,4.732,4.732,0,0,0-1.165,1.391,3.723,3.723,0,0,0-.291,1.577c0,.058,0,.225.006.517h1.811a3.349,3.349,0,0,1,.139-1.245,3.229,3.229,0,0,1,.785-.919,8.665,8.665,0,0,0,1.593-1.747,2.669,2.669,0,0,0,.373-1.36,3.079,3.079,0,0,0-1.015-2.276,3.791,3.791,0,0,0-2.733-.977,3.66,3.66,0,0,0-2.638.966A3.437,3.437,0,0,0,8.438,9.361l1.832.247a2.6,2.6,0,0,1,.7-1.437A1.813,1.813,0,0,1,12.243,7.7Z" fill="#b9b9b9"/>
</svg>
