<svg xmlns="http://www.w3.org/2000/svg" width="22.058" height="23.617" viewBox="0 0 22.058 23.617">
  <g id="Group_48" data-name="Group 48" transform="translate(-389 -738)">
    <path id="settings" d="M21.858,14.17l-1.181-.689a2.025,2.025,0,0,1,0-3.444l1.181-.689a1.87,1.87,0,0,0,.689-2.657l-.984-1.673a1.87,1.87,0,0,0-2.657-.689l-1.181.689a1.964,1.964,0,0,1-2.952-1.673V1.968A1.974,1.974,0,0,0,12.805,0H10.837A1.974,1.974,0,0,0,8.869,1.968V3.247A1.964,1.964,0,0,1,5.917,4.92L4.736,4.33a1.908,1.908,0,0,0-2.657.689L1.1,6.691a2.146,2.146,0,0,0,.689,2.755l1.181.689a1.938,1.938,0,0,1,0,3.346l-1.181.689A1.87,1.87,0,0,0,1.1,16.827L2.079,18.5a1.87,1.87,0,0,0,2.657.689l1.181-.59a1.964,1.964,0,0,1,2.952,1.673v1.378a1.974,1.974,0,0,0,1.968,1.968h1.968a1.974,1.974,0,0,0,1.968-1.968V20.37A1.964,1.964,0,0,1,17.725,18.7l1.181.689a1.908,1.908,0,0,0,2.657-.689l.984-1.673A2.245,2.245,0,0,0,21.858,14.17ZM11.821,15.745a3.936,3.936,0,1,1,3.936-3.936A3.948,3.948,0,0,1,11.821,15.745Z" transform="translate(388.208 738)" fill="#b9b9b9"/>
  </g>
</svg>
