<?xml version="1.0" encoding="utf-8"?>
<!-- Generator: Adobe Illustrator 25.0.1, SVG Export Plug-In . SVG Version: 6.00 Build 0)  -->
<svg version="1.1" id="Layer_1" xmlns="http://www.w3.org/2000/svg" xmlns:xlink="http://www.w3.org/1999/xlink" x="0px" y="0px"
	 viewBox="0 0 35 29" style="enable-background:new 0 0 35 29;" xml:space="preserve">
<style type="text/css">
	.st0{fill:#B9B9B9;}
</style>
<g id="columns" transform="translate(-485 -231)">
	<g id="Rectangle_46">
		<path class="st0" d="M514,233c2.2,0,4,1.8,4,4v17c0,2.2-1.8,4-4,4h-3c-2.2,0-4-1.8-4-4v-17c0-2.2,1.8-4,4-4H514 M514,231h-3
			c-3.3,0-6,2.7-6,6v17c0,3.3,2.7,6,6,6h3c3.3,0,6-2.7,6-6v-17C520,233.7,517.3,231,514,231L514,231z"/>
	</g>
	<g id="Rectangle_47">
		<path class="st0" d="M494,233c2.2,0,4,1.8,4,4v17c0,2.2-1.8,4-4,4h-3c-2.2,0-4-1.8-4-4v-17c0-2.2,1.8-4,4-4H494 M494,231h-3
			c-3.3,0-6,2.7-6,6v17c0,3.3,2.7,6,6,6h3c3.3,0,6-2.7,6-6v-17C500,233.7,497.3,231,494,231L494,231z"/>
	</g>
</g>
</svg>
