<svg xmlns="http://www.w3.org/2000/svg" width="20.426" height="28.45" viewBox="0 0 20.426 28.45">
  <g id="database" transform="translate(-3.6 -8.5)">
    <path id="Path_9" data-name="Path 9" d="M14.826,30.829q-.507.023-1.013.023c-.338,0-.677-.008-1.016-.023a16.621,16.621,0,0,1-6.762-1.516A7.244,7.244,0,0,1,4.1,28v5.244c1.106,1.658,4.815,3.186,9.713,3.186s8.607-1.529,9.713-3.186V28a7.255,7.255,0,0,1-1.952,1.321A16.645,16.645,0,0,1,14.826,30.829Z" transform="translate(0 -6.726)" fill="none" stroke="#b9b9b9" stroke-width="1"/>
    <path id="Path_10" data-name="Path 10" d="M4.1,14.889v5.244C5.125,21.67,8.387,23.1,12.759,23.3l.136,0c.127.005.253.01.382.013q.266.007.537.007t.537-.006c.128,0,.255-.008.382-.013l.136,0c4.372-.2,7.634-1.626,8.659-3.162V14.889c-1.891,1.865-5.889,2.852-9.713,2.852S5.991,16.754,4.1,14.889Z" transform="translate(0 0.744)" fill="none" stroke="#b9b9b9" stroke-width="1"/>
    <path id="Path_11" data-name="Path 11" d="M23.474,4.766C23.038,2.366,19.686,0,13.813,0S4.607,2.354,4.157,4.748a.722.722,0,0,0-.057.273V6.308C5.2,7.96,8.885,9.485,13.813,9.485s8.611-1.525,9.713-3.177V5.021A.686.686,0,0,0,23.474,4.766Z" transform="translate(0 9)" fill="none" stroke="#b9b9b9" stroke-width="1"/>
    <path id="Path_12" data-name="Path 12" d="M4.1,41v4.576a.711.711,0,0,0,.045.252c.459,2.731,4.564,4.77,9.668,4.77s9.191-2.03,9.665-4.751a.751.751,0,0,0,.049-.27V41c-1.607,1.624-4.917,2.9-9.713,2.9S5.706,42.624,4.1,41Z" transform="translate(0 -14.147)" fill="none" stroke="#b9b9b9" stroke-width="1"/>
  </g>
</svg>
