<?xml version="1.0" encoding="utf-8"?>
<!-- Generator: Adobe Illustrator 25.0.1, SVG Export Plug-In . SVG Version: 6.00 Build 0)  -->
<svg version="1.1" id="Layer_1" xmlns="http://www.w3.org/2000/svg" xmlns:xlink="http://www.w3.org/1999/xlink" x="0px" y="0px"
	 viewBox="0 0 23.9 30.5" style="enable-background:new 0 0 23.9 30.5;" xml:space="preserve">
<style type="text/css">
	.st0{fill:none;stroke:#FFFFFF;}
	.st1{fill:#FFFFFF;}
</style>
<g id="Group_30" transform="translate(-27.09 -168.5)">
	<g id="database" transform="translate(23.49 160)">
		<path id="Path_9" class="st0" d="M14.8,24.1c-0.3,0-0.7,0-1,0s-0.7,0-1,0c-2.3,0-4.6-0.5-6.8-1.5c-0.7-0.3-1.4-0.8-1.9-1.3v5.2
			c1.1,1.7,4.8,3.2,9.7,3.2s8.6-1.5,9.7-3.2v-5.2c-0.6,0.5-1.2,1-2,1.3C19.5,23.6,17.2,24.1,14.8,24.1z"/>
		<path id="Path_10" class="st0" d="M4.1,15.6v5.2c1,1.5,4.3,3,8.7,3.2h0.1c0.1,0,0.3,0,0.4,0c0.2,0,0.4,0,0.5,0s0.4,0,0.5,0
			s0.3,0,0.4,0h0.1c4.4-0.2,7.6-1.6,8.7-3.2v-5.2c-1.9,1.9-5.9,2.9-9.7,2.9S6,17.5,4.1,15.6z"/>
		<path id="Path_11" class="st0" d="M23.5,13.8C23,11.4,19.7,9,13.8,9s-9.2,2.4-9.7,4.7C4.1,13.8,4,13.9,4,14v1.3
			c1.1,1.7,4.8,3.2,9.7,3.2s8.6-1.5,9.7-3.2V14C23.5,13.9,23.5,13.8,23.5,13.8z"/>
		<path id="Path_12" class="st0" d="M4.1,26.9v4.6c0,0.1,0,0.2,0,0.3c0.5,2.7,4.6,4.8,9.7,4.8s9.2-2,9.7-4.8c0-0.1,0-0.2,0-0.3v-4.6
			c-1.6,1.6-4.9,2.9-9.7,2.9S5.7,28.5,4.1,26.9z"/>
	</g>
	<path class="st1" d="M47.8,184.9h-8c-1.7,0-3,1.3-3,3v8c0,1.7,1.3,3,3,3h8c1.7,0,3-1.3,3-3v-8C50.8,186.2,49.5,184.9,47.8,184.9z
		 M48,193h-3v3h-2v-3h-3v-2h3v-3h2v3h3V193z"/>
</g>
</svg>
