<svg xmlns="http://www.w3.org/2000/svg" width="23.91" height="30.5" viewBox="0 0 23.91 30.5">
  <g id="Group_30" data-name="Group 30" transform="translate(-27.09 -168.5)">
    <g id="database" transform="translate(23.49 160)">
      <path id="Path_9" data-name="Path 9" d="M14.826,30.829q-.507.023-1.013.023c-.338,0-.677-.008-1.016-.023a16.621,16.621,0,0,1-6.762-1.516A7.244,7.244,0,0,1,4.1,28v5.244c1.106,1.658,4.815,3.186,9.713,3.186s8.607-1.529,9.713-3.186V28a7.255,7.255,0,0,1-1.952,1.321A16.645,16.645,0,0,1,14.826,30.829Z" transform="translate(0 -6.726)" fill="none" stroke="#b9b9b9" stroke-width="1"/>
      <path id="Path_10" data-name="Path 10" d="M4.1,14.889v5.244C5.125,21.67,8.387,23.1,12.759,23.3l.136,0c.127.005.253.01.382.013q.266.007.537.007t.537-.006c.128,0,.255-.008.382-.013l.136,0c4.372-.2,7.634-1.626,8.659-3.162V14.889c-1.891,1.865-5.889,2.852-9.713,2.852S5.991,16.754,4.1,14.889Z" transform="translate(0 0.744)" fill="none" stroke="#b9b9b9" stroke-width="1"/>
      <path id="Path_11" data-name="Path 11" d="M23.474,4.766C23.038,2.366,19.686,0,13.813,0S4.607,2.354,4.157,4.748a.722.722,0,0,0-.057.273V6.308C5.2,7.96,8.885,9.485,13.813,9.485s8.611-1.525,9.713-3.177V5.021A.686.686,0,0,0,23.474,4.766Z" transform="translate(0 9)" fill="none" stroke="#b9b9b9" stroke-width="1"/>
      <path id="Path_12" data-name="Path 12" d="M4.1,41v4.576a.711.711,0,0,0,.045.252c.459,2.731,4.564,4.77,9.668,4.77s9.191-2.03,9.665-4.751a.751.751,0,0,0,.049-.27V41c-1.607,1.624-4.917,2.9-9.713,2.9S5.706,42.624,4.1,41Z" transform="translate(0 -14.147)" fill="none" stroke="#b9b9b9" stroke-width="1"/>
    </g>
    <rect id="Rectangle_14" data-name="Rectangle 14" width="14" height="14" rx="3" transform="translate(37 185)" fill="#b9b9b9"/>
    <g id="Union_3" data-name="Union 3" transform="translate(40 188)" fill="#fff">
      <path d="M 4.500400066375732 7.500100135803223 L 3.49970006942749 7.500100135803223 L 3.49970006942749 5.000400066375732 L 3.49970006942749 4.500400066375732 L 2.99970006942749 4.500400066375732 L 0.5000000596046448 4.500400066375732 L 0.5000000596046448 3.49970006942749 L 2.99970006942749 3.49970006942749 L 3.49970006942749 3.49970006942749 L 3.49970006942749 2.99970006942749 L 3.49970006942749 0.5000000596046448 L 4.500400066375732 0.5000000596046448 L 4.500400066375732 2.99970006942749 L 4.500400066375732 3.49970006942749 L 5.000400066375732 3.49970006942749 L 7.500100135803223 3.49970006942749 L 7.500100135803223 4.500400066375732 L 5.000400066375732 4.500400066375732 L 4.500400066375732 4.500400066375732 L 4.500400066375732 5.000400066375732 L 4.500400066375732 7.500100135803223 Z" stroke="none"/>
      <path d="M 4.000400066375732 7.000100135803223 L 4.000400066375732 5.000400066375732 L 4.000400066375732 4.000400066375732 L 5.000400066375732 4.000400066375732 L 7.000100135803223 4.000400066375732 L 7.000100135803223 3.99970006942749 L 5.000400066375732 3.99970006942749 L 4.000400066375732 3.99970006942749 L 4.000400066375732 2.99970006942749 L 4.000400066375732 1.00000011920929 L 3.99970006942749 1.00000011920929 L 3.99970006942749 2.99970006942749 L 3.99970006942749 3.99970006942749 L 2.99970006942749 3.99970006942749 L 1.00000011920929 3.99970006942749 L 1.00000011920929 4.000400066375732 L 2.99970006942749 4.000400066375732 L 3.99970006942749 4.000400066375732 L 3.99970006942749 5.000400066375732 L 3.99970006942749 7.000100135803223 L 4.000400066375732 7.000100135803223 M 5.000400066375732 8.000100135803223 L 2.99970006942749 8.000100135803223 L 2.99970006942749 5.000400066375732 L 6.790160966829717e-08 5.000400066375732 L 6.790160966829717e-08 2.99970006942749 L 2.99970006942749 2.99970006942749 L 2.99970006942749 6.790160966829717e-08 L 5.000400066375732 6.790160966829717e-08 L 5.000400066375732 2.99970006942749 L 8.000100135803223 2.99970006942749 L 8.000100135803223 5.000400066375732 L 5.000400066375732 5.000400066375732 L 5.000400066375732 8.000100135803223 Z" stroke="none" fill="#fff"/>
    </g>
  </g>
</svg>
