<?xml version="1.0" encoding="utf-8"?>
<!-- Generator: Adobe Illustrator 25.0.1, SVG Export Plug-In . SVG Version: 6.00 Build 0)  -->
<svg version="1.1" id="Layer_1" xmlns="http://www.w3.org/2000/svg" xmlns:xlink="http://www.w3.org/1999/xlink" x="0px" y="0px"
	 viewBox="0 0 50 50" style="enable-background:new 0 0 50 50;" xml:space="preserve">
<style type="text/css">
	.st0{fill:none;stroke:#000000;stroke-width:2;}
</style>
<g id="database" transform="translate(-3.6 -8.5)">
	<path id="Path_9" class="st0" d="M30.2,35.6c-0.5,0-1.1,0-1.6,0c-0.5,0-1.1,0-1.6,0c-3.6,0-7.3-0.8-10.8-2.4
		c-1.1-0.5-2.2-1.3-3-2.1v8.2c1.7,2.7,7.6,5.1,15.4,5.1s13.6-2.4,15.4-5.1v-8.2c-1,0.8-1.9,1.6-3.2,2.1C37.7,34.8,34,35.6,30.2,35.6
		z"/>
	<path id="Path_10" class="st0" d="M13.3,22.1v8.2c1.6,2.4,6.8,4.8,13.8,5.1h0.2c0.2,0,0.5,0,0.6,0c0.3,0,0.6,0,0.8,0s0.6,0,0.8,0
		c0.2,0,0.5,0,0.6,0h0.2c7-0.3,12-2.5,13.8-5.1v-8.2c-3,3-9.4,4.6-15.4,4.6S16.3,25.1,13.3,22.1z"/>
	<path id="Path_11" class="st0" d="M44,19.3c-0.8-3.8-6-7.6-15.4-7.6S14,15.5,13.3,19.1c0,0.2-0.2,0.3-0.2,0.5v2.1
		c1.7,2.7,7.6,5.1,15.4,5.1s13.6-2.4,15.4-5.1v-2.1C44,19.4,44,19.3,44,19.3z"/>
	<path id="Path_12" class="st0" d="M13.3,40v7.3c0,0.2,0,0.3,0,0.5c0.8,4.3,7.3,7.6,15.4,7.6s14.6-3.2,15.4-7.6c0-0.2,0-0.3,0-0.5
		V40c-2.5,2.5-7.8,4.6-15.4,4.6S15.8,42.6,13.3,40z"/>
</g>
</svg>
