<?xml version="1.0" encoding="utf-8"?>
<!-- Generator: Adobe Illustrator 25.0.1, SVG Export Plug-In . SVG Version: 6.00 Build 0)  -->
<svg version="1.1" id="Layer_1" xmlns="http://www.w3.org/2000/svg" xmlns:xlink="http://www.w3.org/1999/xlink" x="0px" y="0px"
	 viewBox="0 0 50 50" style="enable-background:new 0 0 50 50;" xml:space="preserve">
<style type="text/css">
	.st0{fill:none;stroke:#FFFFFF;stroke-width:2;stroke-miterlimit:10;}
</style>
<g id="folder" transform="translate(-75.4 -127.5)">
	<path id="Path_30" class="st0" d="M81.3,171.7c-1.4,0-2.6-1.2-2.6-2.6v-33.2c0-1.4,1.2-2.6,2.6-2.6h15.9c1.4,0,2.6,1.2,2.6,2.6l0,0
		c0,2.4,1.9,4.4,4.2,4.4l0,0h11.6c1,0,1.8,0.8,1.8,1.8v1.2H86.9c-1.7,0-3,1.4-3,3V169C83.8,170.5,82.7,171.7,81.3,171.7L81.3,171.7z
		"/>
	<path id="Path_31" class="st0" d="M81.3,171.7L81.3,171.7c-1.4,0-2.6-1.2-2.6-2.6"/>
	<path id="Path_32" class="st0" d="M81.3,171.7c1.4,0,2.6-1.2,2.6-2.6v-22.8c0-1.7,1.4-3,3-3h32.3c1.7,0,3,1.3,3,3v22.4
		c0,1.7-1.3,3-3,3L81.3,171.7"/>
</g>
</svg>
