<?xml version="1.0" encoding="utf-8"?>
<!-- Generator: Adobe Illustrator 25.0.1, SVG Export Plug-In . SVG Version: 6.00 Build 0)  -->
<svg version="1.1" id="Layer_1" xmlns="http://www.w3.org/2000/svg" xmlns:xlink="http://www.w3.org/1999/xlink" x="0px" y="0px"
	 viewBox="0 0 35.8 31.8" style="enable-background:new 0 0 35.8 31.8;" xml:space="preserve">
<style type="text/css">
	.st0{fill:none;stroke:#B9B9B9;stroke-miterlimit:10;}
</style>
<g id="folder" transform="translate(-75.4 -127.5)">
	<path id="Path_30" class="st0" d="M78.4,158.3c-1.1,0-2-0.9-2-2v-25.8c0-1.1,0.9-2,2-2h12.4c1.1,0,2,0.9,2,2c0,0,0,0,0,0
		c0,1.9,1.5,3.4,3.3,3.4c0,0,0,0,0,0h9c0.8,0,1.4,0.6,1.4,1.4v0.9H82.8c-1.3,0-2.3,1.1-2.3,2.3v17.7
		C80.4,157.4,79.5,158.3,78.4,158.3L78.4,158.3z"/>
	<path id="Path_31" class="st0" d="M78.4,158.3L78.4,158.3c-1.1,0-2-0.9-2-2"/>
	<path id="Path_32" class="st0" d="M78.4,158.3c1.1,0,2-0.9,2-2v-17.7c0-1.3,1.1-2.3,2.3-2.3h25.1c1.3,0,2.3,1,2.3,2.3v17.4
		c0,1.3-1,2.3-2.3,2.3L78.4,158.3"/>
</g>
</svg>
