<svg xmlns="http://www.w3.org/2000/svg" width="23.688" height="15.697" viewBox="0 0 23.688 15.697">
  <path id="Path_13" data-name="Path 13" d="M3.419.237a1.66,1.66,0,0,0,.523,1.34,2.867,2.867,0,0,0,1.78.47v.8a3.6,3.6,0,0,1-2.439-.659A2.612,2.612,0,0,1,2.558.158V-2.8q0-1.8-2.021-1.837v-.7a2.33,2.33,0,0,0,1.547-.448,1.67,1.67,0,0,0,.475-1.3v-3.076q0-2.628,3.164-2.681v.791a2.852,2.852,0,0,0-1.758.51,1.715,1.715,0,0,0-.545,1.38v2.681a3.032,3.032,0,0,1-.387,1.705,1.924,1.924,0,0,1-1.248.747v.07a1.911,1.911,0,0,1,1.244.734,2.851,2.851,0,0,1,.391,1.639Zm17.923-2.83a2.851,2.851,0,0,1,.391-1.639,1.911,1.911,0,0,1,1.244-.734v-.07a1.9,1.9,0,0,1-1.244-.738,3.025,3.025,0,0,1-.391-1.714v-2.681a1.725,1.725,0,0,0-.541-1.375,2.827,2.827,0,0,0-1.762-.514v-.791a3.575,3.575,0,0,1,2.347.681,2.454,2.454,0,0,1,.817,2v3.076a1.659,1.659,0,0,0,.479,1.305,2.35,2.35,0,0,0,1.542.444v.7Q22.2-4.605,22.2-2.8V.158a2.615,2.615,0,0,1-.725,2.026,3.583,3.583,0,0,1-2.439.664v-.8a2.841,2.841,0,0,0,1.771-.461A1.657,1.657,0,0,0,21.342.237Z" transform="translate(-0.536 12.85)" fill="#b9b9b9"/>
</svg>
