<?xml version="1.0" encoding="utf-8"?>
<!-- Generator: Adobe Illustrator 25.0.1, SVG Export Plug-In . SVG Version: 6.00 Build 0)  -->
<svg version="1.1" id="Layer_1" xmlns="http://www.w3.org/2000/svg" xmlns:xlink="http://www.w3.org/1999/xlink" x="0px" y="0px"
	 viewBox="0 0 24 24" style="enable-background:new 0 0 24 24;" xml:space="preserve">
<style type="text/css">
	.st0{fill:#FFFFFF;}
</style>
<path id="Subtraction_3" class="st0" d="M12,24C5.4,24,0,18.6,0,12c0-3.2,1.3-6.2,3.5-8.5c4.6-4.7,12.2-4.8,17-0.1s4.8,12.2,0.1,17
	c0,0-0.1,0.1-0.1,0.1C18.2,22.7,15.2,24,12,24z M11.2,15.3v2.2h2v-2.2L11.2,15.3z M12.2,7.7c0.5,0,0.9,0.1,1.3,0.5
	C13.8,8.4,14,8.8,14,9.2c0,0.3-0.1,0.6-0.3,0.8c-0.3,0.4-0.7,0.7-1,1c-0.5,0.4-0.9,0.9-1.2,1.4c-0.2,0.5-0.3,1-0.3,1.6
	c0,0.1,0,0.2,0,0.5H13c0-0.4,0-0.8,0.1-1.2c0.2-0.4,0.5-0.7,0.8-0.9c0.6-0.5,1.1-1.1,1.6-1.7c0.2-0.4,0.4-0.9,0.4-1.4
	c0-0.9-0.4-1.7-1-2.3c-0.7-0.7-1.7-1-2.7-1c-1,0-1.9,0.3-2.6,1c-0.7,0.6-1,1.5-1.1,2.3l1.8,0.2c0.1-0.5,0.3-1,0.7-1.4
	C11.3,7.9,11.8,7.7,12.2,7.7z"/>
</svg>
