<?xml version="1.0" encoding="utf-8"?>
<!-- Generator: Adobe Illustrator 25.0.1, SVG Export Plug-In . SVG Version: 6.00 Build 0)  -->
<svg version="1.1" id="Layer_1" xmlns="http://www.w3.org/2000/svg" xmlns:xlink="http://www.w3.org/1999/xlink" x="0px" y="0px"
	 viewBox="0 0 27 21" style="enable-background:new 0 0 27 21;" xml:space="preserve">
<style type="text/css">
	.st0{fill:none;}
	.st1{fill:none;stroke:#B9B9B9;}
	.st2{fill:#B9B9B9;}
</style>
<g id="Rectangle_13" transform="translate(60 314)">
	<path class="st0" d="M-56-314h19c2.2,0,4,1.8,4,4v13c0,2.2-1.8,4-4,4h-19c-2.2,0-4-1.8-4-4v-13C-60-312.2-58.2-314-56-314z"/>
</g>
<line id="Line_7" class="st1" x1="13.5" y1="5.5" x2="26.5" y2="5.5"/>
<line id="Line_8" class="st1" x1="13.5" y1="10.5" x2="26.5" y2="10.5"/>
<line id="Line_9" class="st1" x1="13.5" y1="15.5" x2="26.5" y2="15.5"/>
<g>
	<path class="st2" d="M23,0.9C24.6,0.9,26,2.3,26,4v12.9c0,1.7-1.4,3.1-3.1,3.1H4.1c-1.7,0-3.1-1.4-3.1-3.1V4c0-1.7,1.4-3.1,3.1-3.1
		H23 M23-0.1H4.1C1.9-0.1,0,1.7,0,4v12.9c0,2.2,1.8,4.1,4.1,4.1H23c2.2,0,4.1-1.8,4.1-4.1V4C27,1.7,25.2-0.1,23-0.1L23-0.1z"/>
</g>
<path class="st2" d="M10.1,7H4.9C4.4,7,4,6.6,4,6.1V4.6c0-0.5,0.4-0.8,0.8-0.8h5.3c0.5,0,0.8,0.4,0.8,0.8v1.5C11,6.6,10.6,7,10.1,7z
	"/>
<path class="st2" d="M10.1,12H4.9C4.4,12,4,11.6,4,11.2V9.7c0-0.5,0.4-0.8,0.8-0.8h5.3c0.5,0,0.8,0.4,0.8,0.8v1.5
	C11,11.6,10.6,12,10.1,12z"/>
<path class="st2" d="M10.1,17.3H4.9c-0.5,0-0.8-0.4-0.8-0.8v-1.5c0-0.5,0.4-0.8,0.8-0.8h5.3c0.5,0,0.8,0.4,0.8,0.8v1.5
	C11,16.9,10.6,17.3,10.1,17.3z"/>
</svg>
