<svg xmlns="http://www.w3.org/2000/svg" width="24" height="24" viewBox="0 0 24 24">
  <path id="info" d="M12,24A12,12,0,0,1,3.515,3.515,12,12,0,1,1,20.485,20.485,11.922,11.922,0,0,1,12,24ZM12,9.44a.922.922,0,0,0-.688.28.96.96,0,0,0-.272.7v6.609a.963.963,0,0,0,.272.7.986.986,0,0,0,1.376,0,.966.966,0,0,0,.272-.7V10.416a.963.963,0,0,0-.272-.7A.926.926,0,0,0,12,9.44ZM12,6.5a1.382,1.382,0,0,0-.76.167.716.716,0,0,0-.248.633v.3a.757.757,0,0,0,.224.625,1.282,1.282,0,0,0,.769.175,1.414,1.414,0,0,0,.784-.167.729.729,0,0,0,.239-.633V7.3a.757.757,0,0,0-.224-.625A1.311,1.311,0,0,0,12,6.5Z" fill="#b9b9b9"/>
</svg>
