<?xml version="1.0" encoding="utf-8"?>
<!-- Generator: Adobe Illustrator 25.0.1, SVG Export Plug-In . SVG Version: 6.00 Build 0)  -->
<svg version="1.1" id="Layer_1" xmlns="http://www.w3.org/2000/svg" xmlns:xlink="http://www.w3.org/1999/xlink" x="0px" y="0px"
	 viewBox="0 0 27 21" style="enable-background:new 0 0 27 21;" xml:space="preserve">
<style type="text/css">
	.st0{fill:none;}
	.st1{fill:none;stroke:#B9B9B9;}
	.st2{fill:#B9B9B9;}
</style>
<g id="Rectangle_13" transform="translate(60 314)">
	<path class="st0" d="M-56-314h19c2.2,0,4,1.8,4,4v13c0,2.2-1.8,4-4,4h-19c-2.2,0-4-1.8-4-4v-13C-60-312.2-58.2-314-56-314z"/>
	<path class="st1" d="M-56-313.5h19c1.9,0,3.5,1.6,3.5,3.5v13c0,1.9-1.6,3.5-3.5,3.5h-19c-1.9,0-3.5-1.6-3.5-3.5v-13
		C-59.5-311.9-57.9-313.5-56-313.5z"/>
</g>
<line id="Line_7" class="st1" x1="13.4" y1="5.5" x2="26.5" y2="5.5"/>
<line id="Line_8" class="st1" x1="13.4" y1="10.5" x2="26.5" y2="10.5"/>
<line id="Line_9" class="st1" x1="13.4" y1="15.5" x2="26.5" y2="15.5"/>
<line id="Line_10" class="st1" x1="13.5" y1="0.5" x2="13.5" y2="20.5"/>
<g>
	<path class="st2" d="M9,5.9C8.7,5.6,8.4,5.4,8,5.2C7.7,5.1,7.3,5,7,5C6.6,5,6.2,5.1,5.9,5.2C5.5,5.4,5.2,5.6,5,5.9
		C4.7,6.1,4.5,6.4,4.3,6.8C4.2,7.1,4.1,7.5,4.1,7.9c0,0.4,0.1,0.7,0.2,1.1C4.5,9.3,4.7,9.6,5,9.9c0.3,0.3,0.8,0.6,1.2,0.7l0,4.8
		c0,0.1,0.1,0.2,0.2,0.3c0,0,0.1,0,0.1,0h1.1c0,0,0.1,0,0.1,0c0.1,0,0.2-0.1,0.2-0.3v-0.7h1c0,0,0.1,0,0.1,0c0.1,0,0.2-0.1,0.2-0.3
		v-1.1c0,0,0-0.1,0-0.1c0-0.1-0.1-0.2-0.3-0.2H7.8l0-2.5c0.5-0.1,0.9-0.4,1.2-0.7c0.3-0.3,0.5-0.6,0.6-0.9c0.1-0.3,0.2-0.7,0.2-1.1
		c0-0.4-0.1-0.7-0.2-1.1C9.4,6.4,9.2,6.1,9,5.9z M8.4,7.9c0,0.4-0.1,0.7-0.4,1C7.7,9.1,7.3,9.3,7,9.3c-0.4,0-0.7-0.1-1-0.4
		c-0.3-0.3-0.4-0.6-0.4-1c0-0.4,0.1-0.7,0.4-1c0.3-0.3,0.6-0.4,1-0.4c0.4,0,0.7,0.1,1,0.4C8.2,7.1,8.4,7.5,8.4,7.9z"/>
</g>
</svg>
