<?xml version="1.0" encoding="utf-8"?>
<!-- Generator: Adobe Illustrator 25.0.1, SVG Export Plug-In . SVG Version: 6.00 Build 0)  -->
<svg version="1.1" id="Layer_1" xmlns="http://www.w3.org/2000/svg" xmlns:xlink="http://www.w3.org/1999/xlink" x="0px" y="0px"
	 viewBox="0 0 512 512" style="enable-background:new 0 0 512 512;" xml:space="preserve">
<style type="text/css">
	.st0{fill:none;stroke:#B9B9B9;stroke-width:25;stroke-miterlimit:10;}
	.st1{fill:none;stroke:#B9B9B9;stroke-width:25;stroke-linecap:round;stroke-linejoin:round;stroke-miterlimit:10;}
</style>
<path class="st0" d="M262.1,292.3H70c-16.6,0-30.2-13.6-30.2-30.2V70c0-16.6,13.6-30.2,30.2-30.2h192.1c16.6,0,30.2,13.6,30.2,30.2
	v192.1C292.3,278.7,278.7,292.3,262.1,292.3z"/>
<path class="st0" d="M292.3,221.9h151.9c16.6,0,30.2,13.6,30.2,30.2v192.1c0,16.6-13.6,30.2-30.2,30.2H252.1
	c-16.6,0-30.2-13.6-30.2-30.2V292.3"/>
<path class="st1" d="M427,194.5c0-59.3-48.1-107.4-107.4-107.4"/>
<path class="st1" d="M87.2,319.6c0,59.3,48.1,107.4,107.4,107.4"/>
<polyline class="st1" points="110.1,223.8 134.4,167.9 164.8,98.1 222,223.8 "/>
<line class="st1" x1="196.6" y1="174.3" x2="134.4" y2="174.3"/>
<line class="st1" x1="281.1" y1="324.2" x2="405.8" y2="324.2"/>
<path class="st1" d="M378.1,324.2c0,0-25.6,91.1-97,91.1"/>
<line class="st1" x1="343.4" y1="324.2" x2="343.4" y2="292.3"/>
<path class="st1" d="M308.8,324.2c0,0,25.6,91.1,97,91.1"/>
</svg>
