<?xml version="1.0" encoding="utf-8"?>
<!-- Generator: Adobe Illustrator 25.0.1, SVG Export Plug-In . SVG Version: 6.00 Build 0)  -->
<svg version="1.1" id="Layer_1" xmlns="http://www.w3.org/2000/svg" xmlns:xlink="http://www.w3.org/1999/xlink" x="0px" y="0px"
	 viewBox="0 0 266.3 47.4" style="enable-background:new 0 0 266.3 47.4;" xml:space="preserve">
<style type="text/css">
	.st0{fill:#B1B1B1;}
	.st1{fill:none;stroke:#FFFFFF;stroke-width:10;}
	.st2{fill:none;stroke:#00A99D;stroke-width:10;stroke-miterlimit:10;}
</style>
<g id="logo_group" transform="translate(-39.23 -26.608)">
	<g id="phpmyadmin" transform="translate(145.876 -305.6)">
		<g id="g33" transform="translate(0.472 359.003)">
			<path id="path66" class="st0" d="M2.4,3.9h5.8C9.6,3.8,11,4.4,12,5.4c0.9,1.2,1.1,2.7,0.8,4.1c-0.1,0.7-0.3,1.4-0.6,2
				c-0.3,0.6-0.7,1.2-1.2,1.7c-0.5,0.6-1.2,1-2,1.3c-0.9,0.3-1.8,0.4-2.8,0.4H3.6L3,18.8H0L2.4,3.9L2.4,3.9z M5,6.3l-1,6.2h1.8
				c1,0.1,1.9-0.2,2.7-0.7c0.7-0.7,1.1-1.5,1.2-2.5C9.9,8.5,9.8,7.7,9.4,7C8.7,6.4,7.9,6.2,7.1,6.3L5,6.3"/>
			<path id="path68" class="st0" d="M16.1,0h3l-0.6,3.9h2.6c1.2-0.1,2.5,0.2,3.5,0.9c0.7,0.9,0.9,2,0.6,3L24,14.8h-3l1.1-6.6
				c0.2-0.5,0.1-1.1-0.2-1.5c-0.4-0.3-1-0.5-1.5-0.4H18l-1.4,8.5h-3L16.1,0"/>
			<path id="path70" class="st0" d="M28.4,3.9h5.8C35.6,3.8,37,4.4,38,5.4c0.9,1.2,1.1,2.7,0.8,4.1c-0.1,0.7-0.3,1.4-0.6,2
				c-0.3,0.6-0.7,1.2-1.2,1.7c-0.5,0.6-1.2,1-2,1.3c-0.9,0.3-1.8,0.4-2.8,0.4h-2.6L29,18.8h-3L28.4,3.9z M31,6.3l-1,6.2h1.8
				c1,0.1,1.9-0.2,2.7-0.7c0.7-0.7,1.1-1.5,1.2-2.5c0.5-1.1,0-2.4-1-2.9c-0.5-0.2-1-0.3-1.6-0.1L31,6.3"/>
		</g>
		<g id="g65" transform="translate(41.358 355.847)">
			<path id="path72" class="st0" d="M2.9,0h5.8l2.5,13.8l7-13.8h5.7L21,18h-3.8l2.6-14l-7,14H8.5L5.9,3.8L4,18H0L2.9,0"/>
			<path id="path74" class="st0" d="M30.8,15.1h2.9l1.7-10.3H39l-2.1,12.9c-0.1,1.5-0.8,2.9-1.9,3.9c-1.2,0.9-2.6,1.3-4.1,1.3h-7.1
				l0.4-2.7h6.5c0.6,0,1.2-0.1,1.7-0.5c0.4-0.3,0.7-0.9,0.8-1.4l0-0.2H30c-2,0-3.4-0.4-4.2-1.2c-0.7-0.8-1-2.1-0.7-3.9l1.3-8.1h3.6
				l-1.3,7.9c-0.2,0.6-0.2,1.3,0.1,2C29.2,14.9,29.8,15.1,30.8,15.1"/>
			<path id="path76" class="st0" d="M48.7,0h4.2l5,18h-4.4l-1-4.3h-8.1L42.1,18h-4.2L48.7,0z M50.1,3.6l-3.8,6.9h5.6L50.1,3.6"/>
			<path id="path78" class="st0" d="M71.5,18h-6.9c-1.7,0.1-3.4-0.5-4.6-1.8c-1-1.4-1.4-3.3-1-5c0.1-0.8,0.4-1.6,0.8-2.4
				c0.4-0.7,0.9-1.4,1.4-2c0.7-0.7,1.5-1.2,2.4-1.6c1.1-0.3,2.2-0.5,3.4-0.5h3.1L70.8,0h3.6L71.5,18z M68.4,15.2l1.2-7.5h-2.2
				c-1.2-0.1-2.3,0.2-3.3,0.9c-0.8,0.8-1.3,1.8-1.4,3c-0.6,1.3,0,2.9,1.3,3.5c0.6,0.3,1.2,0.3,1.9,0.1L68.4,15.2"/>
			<path id="path80" class="st0" d="M76.8,4.8h13.9c2,0,3.4,0.4,4.2,1.1c0.8,0.8,1,2,0.7,3.7L94.2,18h-3.6l1.3-7.9
				C92,9.4,92,8.7,91.7,8.1c-0.3-0.3-0.9-0.5-1.8-0.5h-2L86.2,18h-3.7l1.7-10.3H80L78.3,18h-3.6L76.8,4.8"/>
			<path id="path82" class="st0" d="M103.6,3.3h-3.8l0.5-3.3h3.8L103.6,3.3z M101.2,18h-3.8l2.1-13.2h3.8L101.2,18"/>
			<path id="path84" class="st0" d="M106.5,4.8h6.8c2.1,0,3.5,0.4,4.2,1.1s1,2,0.7,3.7l-1.4,8.4h-3.6l1.3-8c0.2-1,0.1-1.6-0.2-1.9
				c-0.5-0.4-1.2-0.5-1.8-0.4h-2.9L108,18h-3.6L106.5,4.8"/>
		</g>
	</g>
	<g id="logo" transform="translate(44.23 27.929)">
		<path id="Path_3" class="st1" d="M49,0v44.6"/>
		<line id="Line_2" class="st2" x1="37.4" y1="0" x2="37.4" y2="44.6"/>
		<ellipse id="Ellipse_1" class="st2" cx="67.7" cy="22.4" rx="18.7" ry="18.7"/>
		<ellipse id="Ellipse_2" class="st2" cx="18.7" cy="22.4" rx="18.7" ry="18.7"/>
	</g>
</g>
</svg>
