<svg xmlns="http://www.w3.org/2000/svg" width="266.325" height="47.376" viewBox="0 0 266.325 47.376">
  <g id="logo_group" transform="translate(-39.23 -26.608)">
    <g id="phpmyadmin" transform="translate(145.876 -305.6)">
      <g id="g33" transform="translate(0.472 359.003)">
        <path id="path66" d="M2.872,1763.86H8.624a4.65,4.65,0,0,1,3.807,1.476,4.979,4.979,0,0,1,.788,4.114,6.915,6.915,0,0,1-.624,1.986,6.4,6.4,0,0,1-1.187,1.653,5.152,5.152,0,0,1-1.964,1.288,8.377,8.377,0,0,1-2.781.389H4.1l-.637,3.944H.472l2.4-14.85Zm2.611,2.349-1.007,6.229H6.3a4.081,4.081,0,0,0,2.682-.739,3.939,3.939,0,0,0,1.151-2.461,2.921,2.921,0,0,0-.311-2.344,2.938,2.938,0,0,0-2.284-.684H5.483" transform="translate(-0.472 -1759.916)" fill="#b1b1b1"/>
        <path id="path68" d="M324.344,1671.345h2.969l-.637,3.944h2.641a4.915,4.915,0,0,1,3.456.945,3.335,3.335,0,0,1,.624,3.045l-1.118,6.916h-3.014l1.064-6.582a1.911,1.911,0,0,0-.176-1.527,2.012,2.012,0,0,0-1.495-.4h-2.369l-1.376,8.513h-2.969l2.4-14.85" transform="translate(-308.239 -1671.345)" fill="#b1b1b1"/>
        <path id="path70" d="M612.546,1763.86H618.3a4.65,4.65,0,0,1,3.807,1.476,4.978,4.978,0,0,1,.788,4.114,6.921,6.921,0,0,1-.624,1.986,6.409,6.409,0,0,1-1.187,1.653,5.154,5.154,0,0,1-1.964,1.288,8.377,8.377,0,0,1-2.781.389h-2.561l-.637,3.944h-2.991Zm2.612,2.349-1.007,6.229h1.819a4.079,4.079,0,0,0,2.681-.739,3.938,3.938,0,0,0,1.151-2.461,2.187,2.187,0,0,0-2.6-3.028h-2.049" transform="translate(-584.155 -1759.916)" fill="#b1b1b1"/>
      </g>
      <g id="g65" transform="translate(41.358 355.847)">
        <path id="path72" d="M962.445,1597.324H968.2l2.527,13.807,6.99-13.807h5.731l-2.908,17.993H976.7l2.582-14.015-7.048,14.015H968.07l-2.647-14.161-1.9,14.161h-3.99l2.908-17.993" transform="translate(-959.537 -1597.324)" fill="#b1b1b1"/>
        <path id="path74" d="M1526.134,1719.726h2.9l1.665-10.3h3.611l-2.078,12.859a6.22,6.22,0,0,1-1.9,3.885,6.076,6.076,0,0,1-4.082,1.262h-7.08l.433-2.677h6.459a2.691,2.691,0,0,0,1.676-.486,2.116,2.116,0,0,0,.786-1.408l.036-.221h-3.2q-3.066,0-4.182-1.169t-.675-3.9l1.317-8.146h3.57l-1.273,7.877a2.668,2.668,0,0,0,.146,1.96q.388.466,1.859.466" transform="translate(-1495.32 -1704.644)" fill="#b1b1b1"/>
        <path id="path76" d="M1859.949,1597.324h4.157l5.039,17.993h-4.36l-1.019-4.282h-8.1l-2.353,4.282h-4.158Zm1.35,3.573-3.844,6.925h5.551l-1.707-6.925" transform="translate(-1811.231 -1597.324)" fill="#b1b1b1"/>
        <path id="path78" d="M2353.355,1615.317h-6.936a5.642,5.642,0,0,1-4.618-1.788,6.024,6.024,0,0,1-.956-4.984,8.355,8.355,0,0,1,.756-2.406,7.759,7.759,0,0,1,1.439-2,6.236,6.236,0,0,1,2.388-1.561,10.189,10.189,0,0,1,3.366-.471h3.1l.772-4.779h3.6Zm-3.139-2.833,1.218-7.534h-2.184a5.017,5.017,0,0,0-3.261.888,4.688,4.688,0,0,0-1.4,2.958,2.666,2.666,0,0,0,3.149,3.688h2.476" transform="translate(-2281.829 -1597.324)" fill="#b1b1b1"/>
        <path id="path80" d="M2713.057,1709.423h13.865q3.016,0,4.162,1.138t.733,3.7l-1.355,8.38h-3.638l1.281-7.926a2.639,2.639,0,0,0-.145-1.923q-.381-.465-1.8-.466h-2.025l-1.667,10.315h-3.692l1.668-10.315h-4.22l-1.667,10.315h-3.638l2.136-13.214" transform="translate(-2636.257 -1704.644)" fill="#b1b1b1"/>
        <path id="path82" d="M3251.2,1600.6h-3.787l.53-3.277h3.786Zm-2.378,14.715h-3.787l2.135-13.214h3.787l-2.135,13.214" transform="translate(-3147.603 -1597.324)" fill="#b1b1b1"/>
        <path id="path84" d="M3409.257,1709.423h6.793q3.08,0,4.217,1.12t.718,3.714l-1.354,8.38h-3.611l1.286-7.951q.24-1.482-.166-1.923a2.611,2.611,0,0,0-1.837-.441h-2.9l-1.668,10.315h-3.61l2.135-13.214" transform="translate(-3302.777 -1704.644)" fill="#b1b1b1"/>
      </g>
    </g>
    <g id="logo" transform="translate(44.23 27.929)">
      <path id="Path_3" data-name="Path 3" d="M0,0V44.635" transform="translate(48.976 0)" fill="none" stroke="#000" stroke-width="10"/>
      <line id="Line_2" data-name="Line 2" y2="44.635" transform="translate(37.449 0)" fill="none" stroke="#00a99d" stroke-miterlimit="10" stroke-width="10"/>
      <ellipse id="Ellipse_1" data-name="Ellipse 1" cx="18.688" cy="18.688" rx="18.688" ry="18.688" transform="translate(49.049 3.679)" fill="none" stroke="#00a99d" stroke-miterlimit="10" stroke-width="10"/>
      <ellipse id="Ellipse_2" data-name="Ellipse 2" cx="18.688" cy="18.688" rx="18.688" ry="18.688" transform="translate(0 3.679)" fill="none" stroke="#00a99d" stroke-miterlimit="10" stroke-width="10"/>
    </g>
  </g>
</svg>
