<svg xmlns="http://www.w3.org/2000/svg" width="33" height="23" viewBox="0 0 33 23">
  <g id="add_table" transform="translate(-67 -290)">
    <g id="table" transform="translate(7 -24)">
      <g id="Rectangle_13" data-name="Rectangle 13" transform="translate(60 314)" fill="none" stroke="#b9b9b9" stroke-width="1">
        <rect width="27" height="21" rx="4" stroke="none"/>
        <rect x="0.5" y="0.5" width="26" height="20" rx="3.5" fill="none"/>
      </g>
      <line id="Line_7" data-name="Line 7" x2="26" transform="translate(60.5 319.5)" fill="none" stroke="#b9b9b9" stroke-width="1"/>
      <line id="Line_8" data-name="Line 8" x2="26" transform="translate(60.5 324.5)" fill="none" stroke="#b9b9b9" stroke-width="1"/>
      <line id="Line_9" data-name="Line 9" x2="26" transform="translate(60.5 329.5)" fill="none" stroke="#b9b9b9" stroke-width="1"/>
      <line id="Line_10" data-name="Line 10" y2="20" transform="translate(73.5 314.5)" fill="none" stroke="#b9b9b9" stroke-width="1"/>
    </g>
    <rect id="Rectangle_17" data-name="Rectangle 17" width="14" height="14" rx="3" transform="translate(86 299)" fill="#b9b9b9"/>
    <g id="Union_4" data-name="Union 4" transform="translate(89 302)" fill="#fff">
      <path d="M 4.500400066375732 7.500100135803223 L 3.49970006942749 7.500100135803223 L 3.49970006942749 5.000400066375732 L 3.49970006942749 4.500400066375732 L 2.99970006942749 4.500400066375732 L 0.5000000596046448 4.500400066375732 L 0.5000000596046448 3.49970006942749 L 2.99970006942749 3.49970006942749 L 3.49970006942749 3.49970006942749 L 3.49970006942749 2.99970006942749 L 3.49970006942749 0.5000000596046448 L 4.500400066375732 0.5000000596046448 L 4.500400066375732 2.99970006942749 L 4.500400066375732 3.49970006942749 L 5.000400066375732 3.49970006942749 L 7.500100135803223 3.49970006942749 L 7.500100135803223 4.500400066375732 L 5.000400066375732 4.500400066375732 L 4.500400066375732 4.500400066375732 L 4.500400066375732 5.000400066375732 L 4.500400066375732 7.500100135803223 Z" stroke="none"/>
      <path d="M 4.000400066375732 7.000100135803223 L 4.000400066375732 5.000400066375732 L 4.000400066375732 4.000400066375732 L 5.000400066375732 4.000400066375732 L 7.000100135803223 4.000400066375732 L 7.000100135803223 3.99970006942749 L 5.000400066375732 3.99970006942749 L 4.000400066375732 3.99970006942749 L 4.000400066375732 2.99970006942749 L 4.000400066375732 1.00000011920929 L 3.99970006942749 1.00000011920929 L 3.99970006942749 2.99970006942749 L 3.99970006942749 3.99970006942749 L 2.99970006942749 3.99970006942749 L 1.00000011920929 3.99970006942749 L 1.00000011920929 4.000400066375732 L 2.99970006942749 4.000400066375732 L 3.99970006942749 4.000400066375732 L 3.99970006942749 5.000400066375732 L 3.99970006942749 7.000100135803223 L 4.000400066375732 7.000100135803223 M 5.000400066375732 8.000100135803223 L 2.99970006942749 8.000100135803223 L 2.99970006942749 5.000400066375732 L 6.790160966829717e-08 5.000400066375732 L 6.790160966829717e-08 2.99970006942749 L 2.99970006942749 2.99970006942749 L 2.99970006942749 6.790160966829717e-08 L 5.000400066375732 6.790160966829717e-08 L 5.000400066375732 2.99970006942749 L 8.000100135803223 2.99970006942749 L 8.000100135803223 5.000400066375732 L 5.000400066375732 5.000400066375732 L 5.000400066375732 8.000100135803223 Z" stroke="none" fill="#fff"/>
    </g>
  </g>
</svg>
