<?xml version="1.0" encoding="utf-8"?>
<!-- Generator: Adobe Illustrator 25.0.1, SVG Export Plug-In . SVG Version: 6.00 Build 0)  -->
<svg version="1.1" id="Layer_1" xmlns="http://www.w3.org/2000/svg" xmlns:xlink="http://www.w3.org/1999/xlink" x="0px" y="0px"
	 viewBox="0 0 33 23" style="enable-background:new 0 0 33 23;" xml:space="preserve">
<style type="text/css">
	.st0{fill:none;}
	.st1{fill:none;stroke:#B9B9B9;}
	.st2{fill:#B9B9B9;}
</style>
<g id="table" transform="translate(7 -24)">
	<g id="Rectangle_13" transform="translate(60 314)">
		<path class="st0" d="M-63-290h19c2.2,0,4,1.8,4,4v13c0,2.2-1.8,4-4,4h-19c-2.2,0-4-1.8-4-4v-13C-67-288.2-65.2-290-63-290z"/>
		<path class="st1" d="M-47.7-269.5H-63c-1.9,0-3.5-1.6-3.5-3.5v-13c0-1.9,1.6-3.5,3.5-3.5h19c1.9,0,3.5,1.6,3.5,3.5v5.2"/>
	</g>
	<line id="Line_7" class="st1" x1="-6.5" y1="29.5" x2="19.5" y2="29.5"/>
	<line id="Line_8" class="st1" x1="-6.5" y1="34.5" x2="12.8" y2="34.5"/>
	<line id="Line_9" class="st1" x1="-6.5" y1="39.5" x2="12.1" y2="39.5"/>
	<line id="Line_10" class="st1" x1="6.5" y1="24.5" x2="6.5" y2="44.5"/>
</g>
<g>
	<path class="st2" d="M30,9h-8c-1.7,0-3,1.3-3,3v8c0,1.7,1.3,3,3,3h8c1.7,0,3-1.3,3-3v-8C33,10.3,31.7,9,30,9z M30,17h-3v3h-2v-3h-3
		v-2h3v-3h2v3h3V17z"/>
</g>
</svg>
