<svg xmlns="http://www.w3.org/2000/svg" width="26.099" height="26.099" viewBox="0 0 26.099 26.099">
  <g id="theme" transform="translate(0 -0.001)">
    <path id="Path_23" data-name="Path 23" d="M235.828,11.038a.765.765,0,0,0,0-1.081L226.1.224a.765.765,0,0,0-1.081,0L221.23,4.009l10.813,10.813Z" transform="translate(-209.953 0)" fill="#b9b9b9"/>
    <path id="Path_24" data-name="Path 24" d="M7.83,119.516a4.557,4.557,0,0,0,1.345-3.243c0-.917,1.49-2.762,3.013-3.393.441-.182,1.041-.324,1.4.035l.418.418,0,0a3.065,3.065,0,0,0,4.325,0l2.672-2.672L10.2,99.852l-2.672,2.672a3.065,3.065,0,0,0,0,4.326l.422.421a.781.781,0,0,1,.224.59c0,1.5-2.38,3.824-3.582,3.824A4.593,4.593,0,0,0,0,116.273H0a4.586,4.586,0,0,0,7.83,3.243Zm-4.007-3.243a.765.765,0,1,1,.765.765A.765.765,0,0,1,3.823,116.273Z" transform="translate(0 -94.762)" fill="#b9b9b9"/>
  </g>
</svg>
